<?xml version="1.0" encoding="UTF-8" standalone="no"?>
<!DOCTYPE svg PUBLIC "-//W3C//DTD SVG 1.1//EN" "http://www.w3.org/Graphics/SVG/1.1/DTD/svg11.dtd">
<!-- Created with Vectornator (http://vectornator.io/) -->
<svg height="100%" stroke-miterlimit="10" style="fill-rule:nonzero;clip-rule:evenodd;stroke-linecap:round;stroke-linejoin:round;" version="1.1" viewBox="0 0 393.352 400.511" width="100%" xml:space="preserve" xmlns="http://www.w3.org/2000/svg" xmlns:vectornator="http://vectornator.io" xmlns:xlink="http://www.w3.org/1999/xlink">
<defs/>
<g id="Capa-1-copiar" vectornator:layerName="Capa 1 copiar">
<path d="M192.108 14.4546C189.118 15.6504 186.727 16.7466 184.933 17.7431C183.139 18.7396 181.196 19.487 179.103 19.9852C177.011 20.4835 175.267 21.1312 173.872 21.9285C172.476 22.7257 170.434 23.3734 167.743 23.8717C165.052 24.3699 160.967 25.6156 155.486 27.6086C150.005 29.6016 145.82 30.9469 142.93 31.6445C140.04 32.3421 137.548 32.7905 135.456 32.9898C133.363 33.1891 130.922 33.3386 128.131 33.4382C125.341 33.5379 123.498 33.3386 122.601 32.8403C121.704 32.3421 120.657 32.0929 119.462 32.0929C118.266 32.0929 117.22 32.2922 116.323 32.6908C115.426 33.0895 114.429 33.9863 113.333 35.3814C112.237 36.7766 109.746 37.8229 105.859 38.5205C101.973 39.218 99.1327 39.8658 97.339 40.4637C95.5452 41.0616 93.8512 41.9086 92.2567 43.0048C90.6623 44.101 89.317 44.8484 88.2208 45.247C87.1247 45.6456 86.5268 45.9445 86.4271 46.1438C86.3773 46.2435 86.3275 46.3431 86.2776 46.4428C86.4271 46.4926 86.5766 46.5424 86.7261 46.5923C87.025 46.6919 87.6728 46.7417 88.6693 46.7417C89.6658 46.7417 91.5592 46.2933 94.3494 45.3965C97.1397 44.4996 100.926 44.0512 105.71 44.0512C110.493 44.0512 113.184 44.2505 113.782 44.6491C114.379 45.0477 114.429 45.9445 113.931 47.3397C113.433 48.7348 112.685 50.1299 111.689 51.525C110.692 52.9202 109.795 53.9665 108.998 54.6641C108.201 55.3616 106.955 56.1588 105.261 57.0557C103.567 57.9526 102.222 58.5505 101.225 58.8494C100.229 59.1484 98.8836 59.2979 97.1895 59.2979C95.4954 59.2979 92.6553 58.7 88.6693 57.5041C84.6832 56.3083 80.9961 55.7602 77.6079 55.8599C74.2198 55.9595 71.1804 56.2585 68.4898 56.7568C65.7992 57.255 64.4539 57.6038 64.4539 57.8031C64.4539 57.9027 64.4539 58.0024 64.4539 58.1021C65.1016 58.1021 65.7494 58.1021 66.3971 58.1021C67.6926 58.1021 70.5825 57.9027 75.0668 57.5041C79.5511 57.1055 82.5905 57.0557 84.1849 57.3547C85.7794 57.6536 87.7226 58.2515 90.0146 59.1484C92.3066 60.0453 94.8477 60.4937 97.6379 60.4937C100.428 60.4937 103.169 59.8958 105.859 58.7C108.55 57.5041 110.493 56.5076 111.689 55.7104C112.885 54.9132 113.981 54.0163 114.977 53.0198C115.974 52.0233 116.821 50.8275 117.518 49.4323C118.216 48.0372 119.462 47.0407 121.255 46.4428C123.049 45.8449 124.245 45.247 124.843 44.6491C125.441 44.0512 126.039 43.1543 126.637 41.9585C126.936 41.3606 127.235 40.7626 127.533 40.1647C128.181 40.5633 128.829 40.9619 129.477 41.3606C130.772 42.1578 132.416 42.9052 134.409 43.6027C136.402 44.3003 138.445 44.6989 140.538 44.7985C142.631 44.8982 146.816 45.6456 153.094 47.0407C159.372 48.4358 164.504 50.4787 168.49 53.1693C172.476 55.8599 175.914 57.9027 178.804 59.2979C181.694 60.693 183.089 61.5899 182.99 61.9885C182.89 62.3871 181.545 62.4369 178.954 62.1379C176.363 61.839 174.32 61.7393 172.825 61.839C171.33 61.9386 169.736 62.4369 168.042 63.3338C166.348 64.2306 164.753 64.8784 163.259 65.277C161.764 65.6756 160.219 66.3731 158.625 67.3697C157.03 68.3662 153.742 69.2132 148.759 69.9108C143.777 70.6083 139.193 71.7045 135.007 73.1993C130.822 74.6941 125.441 76.2387 118.864 77.8331C112.287 79.4275 107.653 80.2746 104.962 80.3742C102.272 80.4739 100.578 80.3244 99.8801 79.9258C99.1825 79.5272 97.8372 79.4774 95.8442 79.7763C93.8512 80.0753 92.0076 80.0254 90.3135 79.6268C88.6194 79.2282 86.9254 79.0289 85.2313 79.0289C83.5372 79.0289 80.5477 78.2317 76.2626 76.6373C71.9776 75.0429 67.0448 73.5481 61.4643 72.153C55.8838 70.7578 52.7448 70.0603 52.0472 70.0603C51.3497 70.0603 50.7518 69.8111 50.2535 69.3129C49.7553 68.8146 48.7587 68.416 47.264 68.1171C45.7692 67.8181 44.3741 67.27 43.0786 66.4728C41.7831 65.6756 40.6869 65.1773 39.7901 64.978C38.8932 64.7787 37.6974 64.2805 36.2026 63.4832C34.7078 62.686 34.0601 62.0881 34.2594 61.6895C34.4587 61.2909 38.096 59.7463 45.1713 57.0557C52.2465 54.3651 56.0333 52.8205 56.5316 52.4219C56.7807 52.2226 57.0298 52.0233 57.279 51.824C57.0298 51.7243 56.7807 51.6247 56.5316 51.525C56.0333 51.3257 54.688 51.6247 52.4957 52.4219C50.3033 53.2191 47.7622 53.7672 44.8723 54.0662C41.9824 54.3651 39.2918 54.963 36.8005 55.8599C34.3092 56.7568 32.1169 57.3048 30.2235 57.5041C28.3301 57.7034 26.4367 58.1021 24.5434 58.7C22.65 59.2979 21.205 59.846 20.2085 60.3442C19.212 60.8425 18.2155 61.5899 17.2189 62.5864C16.2224 63.5829 15.2757 65.1275 14.3789 67.2202C13.482 69.3129 12.9837 71.4554 12.8841 73.6477C12.7844 75.8401 12.9837 77.7833 13.482 79.4774C13.9803 81.1714 14.329 83.5133 14.5284 86.5028C14.7277 89.4924 15.0764 92.0833 15.5747 94.2756C16.073 96.468 16.3719 99.7067 16.4716 103.992C16.5712 108.277 16.7705 110.569 17.0695 110.868C17.3684 111.167 17.5677 111.665 17.6674 112.362C17.7172 112.711 17.767 113.06 17.8169 113.409C17.9663 113.309 18.1158 113.209 18.2653 113.11C18.5642 112.911 18.8134 109.024 19.0127 101.451C19.1123 97.6638 19.212 93.877 19.3116 90.0903C19.5109 90.1899 19.7102 90.2896 19.9095 90.3892C20.3082 90.5885 21.6535 92.2826 23.9454 95.4715C26.2374 98.6603 27.6824 100.853 28.2803 102.048C28.8782 103.244 29.1772 104.689 29.1772 106.383C29.1772 108.077 28.928 109.821 28.4298 111.615C27.9315 113.409 27.6824 115.751 27.6824 118.641C27.6824 121.53 28.081 124.271 28.8782 126.862C29.6754 129.453 30.2235 130.748 30.5225 130.748C30.6719 130.748 30.8214 130.748 30.9709 130.748C30.9709 130.599 30.9709 130.449 30.9709 130.3C30.9709 130.001 30.6221 128.656 29.9246 126.264C29.227 123.872 28.8782 121.481 28.8782 119.089C28.8782 116.697 29.1273 114.555 29.6256 112.661C30.1239 110.768 30.4228 109.024 30.5225 107.43C30.6221 105.835 30.5723 104.54 30.373 103.543C30.1737 102.547 29.3765 101.002 27.9813 98.9095C26.5862 96.8168 25.4402 94.6244 24.5434 92.3324C23.6465 90.0404 23.0984 87.7983 22.8991 85.6059C22.6998 83.4136 22.6998 81.9188 22.8991 81.1216C23.0984 80.3244 23.3974 79.7763 23.796 79.4774C24.1946 79.1784 24.643 78.9791 25.1413 78.8794C25.6395 78.7798 25.9883 78.8794 26.1876 79.1784C26.3869 79.4774 26.7855 80.9721 27.3834 83.6627C27.9813 86.3533 28.9779 89.4924 30.373 93.0798C31.7681 96.6673 32.9639 99.2582 33.9604 100.853C34.957 102.447 36.1528 103.892 37.5479 105.188C38.943 106.483 40.5873 108.626 42.4807 111.615C44.3741 114.605 45.3706 117.096 45.4702 119.089C45.5699 121.082 45.7692 122.427 46.0681 123.125C46.3671 123.822 46.666 124.271 46.965 124.47C47.264 124.669 47.812 124.719 48.6093 124.62C49.4065 124.52 50.104 123.972 50.7019 122.975C51.2999 121.979 51.6486 121.132 51.7483 120.434C51.8479 119.737 51.5988 119.039 51.0009 118.342C50.403 117.644 49.8549 116.647 49.3566 115.352C48.8584 114.057 47.3138 112.063 44.7228 109.373C42.1319 106.682 40.5873 104.689 40.089 103.394C39.5908 102.098 38.6441 100.454 37.249 98.461C35.8538 96.468 34.1099 92.8307 32.0172 87.5492C29.9246 82.2676 28.8284 78.9791 28.7287 77.6836C28.6291 76.3882 28.7287 75.5909 29.0277 75.292C29.3266 74.993 29.7252 74.993 30.2235 75.292C30.7218 75.5909 31.8179 76.9362 33.512 79.3279C35.2061 81.7195 37.0497 83.7126 39.0427 85.307C41.0357 86.9014 42.8295 87.9976 44.4239 88.5955C46.0183 89.1934 47.5131 89.4924 48.9082 89.4924C50.3033 89.4924 51.9974 89.1934 53.9905 88.5955C55.9835 87.9976 57.5281 87.6986 58.6243 87.6986C59.7204 87.6986 61.0159 87.8979 62.5107 88.2965C64.0055 88.6951 65.5999 89.5422 67.294 90.8377C68.988 92.1331 70.3333 93.6279 71.3299 95.322C72.3264 97.0161 72.8745 98.1621 72.9741 98.76C73.0738 99.3579 73.2731 99.6568 73.572 99.6568C73.7215 99.6568 73.871 99.6568 74.0205 99.6568C74.0205 99.2582 74.0205 98.8596 74.0205 98.461C74.0205 97.6638 73.8212 96.8168 73.4225 95.9199C73.0239 95.023 72.426 93.9269 71.6288 92.6314C70.8316 91.3359 69.9347 90.1899 68.9382 89.1934C67.9417 88.1969 66.3971 87.2502 64.3044 86.3533C62.2117 85.4565 60.119 85.008 58.0264 85.008C55.9337 85.008 54.1399 84.8087 52.6452 84.4101C51.1504 84.0115 49.9047 83.8122 48.9082 83.8122C47.9117 83.8122 46.5664 83.3638 44.8723 82.4669C43.1782 81.57 42.0821 81.2213 41.5838 81.4206C41.0855 81.6199 40.2883 81.1714 39.1922 80.0753C38.096 78.9791 36.8005 77.2352 35.3057 74.8435C34.5584 73.6477 33.811 72.4519 33.0636 71.2561C33.6117 71.3557 34.1598 71.4554 34.7078 71.555C35.804 71.7543 38.8434 71.854 43.826 71.854C48.8086 71.854 52.9441 72.2028 56.2326 72.9003C59.5211 73.5979 62.411 74.3453 64.9023 75.1425C67.3936 75.9397 70.0344 77.1854 72.8246 78.8794C75.6149 80.5735 78.3055 81.8192 80.8964 82.6164C83.4874 83.4136 85.8292 84.3603 87.9219 85.4565C90.0146 86.5526 91.31 87.4495 91.8083 88.1471C92.3066 88.8446 92.8546 89.3429 93.4526 89.6418C94.0505 89.9408 94.4989 91.1864 94.7979 93.3788C95.0968 95.5711 95.4954 97.0659 95.9937 97.8631C96.4919 98.6603 96.7909 106.832 96.8905 122.377C96.9902 137.923 97.2393 149.981 97.6379 158.551C98.0365 167.121 98.0864 171.605 97.7874 172.004C97.4885 172.403 97.339 173.399 97.339 174.994C97.339 176.588 97.1895 177.983 96.8905 179.179C96.5916 180.375 96.4919 182.019 96.5916 184.112C96.6912 186.204 96.5418 188.048 96.1432 189.642C95.7445 191.237 95.5951 192.781 95.6947 194.276C95.7944 195.771 95.5452 196.767 94.9473 197.266C94.3494 197.764 94.0006 198.212 93.901 198.611C93.8013 199.01 93.6519 199.259 93.4526 199.358C93.3529 199.408 93.2533 199.458 93.1536 199.508C93.0041 199.209 92.8546 198.91 92.7052 198.611C92.4062 198.013 92.0076 197.664 91.5093 197.565C91.0111 197.465 90.0644 196.767 88.6693 195.472C87.2741 194.177 86.0285 192.632 84.9323 190.838C83.8362 189.044 82.9393 186.703 82.2417 183.813C81.5442 180.923 81.0957 178.332 80.8964 176.04C80.6971 173.748 79.7504 169.762 78.0564 164.082C76.3623 158.402 74.9672 154.415 73.871 152.124C72.7748 149.832 71.4793 147.689 69.9846 145.696C68.4898 143.703 67.1445 141.61 65.9487 139.418C64.7528 137.226 64.7528 134.087 65.9487 130.001C66.5466 127.958 67.1445 125.915 67.7424 123.872C67.5431 123.972 67.3438 124.072 67.1445 124.171C66.7459 124.37 66.2974 125.417 65.7992 127.31C65.3009 129.204 64.7528 130.698 64.1549 131.795C63.557 132.891 63.1086 133.389 62.8096 133.289C62.5107 133.19 61.3647 131.645 59.3716 128.656C57.3786 125.666 55.9337 124.171 55.0368 124.171C54.1399 124.171 53.542 124.47 53.2431 125.068C52.9441 125.666 52.8943 126.862 53.0936 128.656C53.2929 130.449 54.5385 132.492 56.8305 134.784C59.1225 137.076 59.3218 139.767 57.4284 142.856C55.5351 145.945 53.1932 149.034 50.403 152.124C47.6127 155.213 45.819 156.957 45.0218 157.355C44.2246 157.754 42.2315 158.202 39.0427 158.701C35.8538 159.199 33.1134 159.797 30.8214 160.494C28.5294 161.192 26.5862 162.139 24.9918 163.334C23.3974 164.53 22.2514 165.776 21.5538 167.071C20.8562 168.367 20.4078 169.014 20.2085 169.014C20.0092 169.014 19.7102 168.167 19.3116 166.473C18.913 164.779 18.7137 160.993 18.7137 155.113C18.7137 149.234 18.5144 145.148 18.1158 142.856C17.7172 140.564 17.3684 139.268 17.0695 138.969C16.92 138.82 16.7705 138.671 16.621 138.521C16.5712 139.019 16.5214 139.518 16.4716 140.016C16.3719 141.012 16.5214 142.657 16.92 144.949C17.3186 147.241 17.3684 151.775 17.0695 158.551C16.7705 165.327 16.5214 168.965 16.3221 169.463C16.1228 169.961 15.6245 170.36 14.8273 170.659C14.0301 170.958 13.2827 171.406 12.5851 172.004C11.8876 172.602 11.3395 173.3 10.9409 174.097C10.5423 174.894 10.2932 175.791 10.1935 176.787C10.0938 177.784 10.2932 178.93 10.7914 180.225C11.2897 181.521 11.8378 182.467 12.4357 183.065C13.0336 183.663 13.8308 184.211 14.8273 184.71C15.8238 185.208 16.3221 187.849 16.3221 192.632C16.3221 197.415 16.4217 200.056 16.621 200.554C16.8203 201.053 16.9698 202.697 17.0695 205.487C17.1193 206.882 17.1691 208.277 17.2189 209.672C17.3684 208.327 17.5179 206.982 17.6674 205.637C17.9663 202.946 18.5642 200.255 19.4611 197.565C20.358 194.874 20.7068 192.134 20.5075 189.343C20.3082 186.553 20.6569 184.859 21.5538 184.261C22.4507 183.663 23.8458 183.414 25.7392 183.514C27.6326 183.613 30.6719 184.66 34.8573 186.653C39.0427 188.646 41.534 190.041 42.3312 190.838C43.1284 191.635 43.9256 193.18 44.7228 195.472C45.5201 197.764 46.666 199.408 48.1608 200.405C49.6556 201.401 51.1006 202.099 52.4957 202.497C53.8908 202.896 54.7877 203.394 55.1863 203.992C55.5849 204.59 55.8838 204.839 56.0831 204.74C56.1828 204.69 56.2824 204.64 56.3821 204.59C56.0831 204.241 55.7842 203.893 55.4852 203.544C54.8873 202.846 53.8908 202.298 52.4957 201.9C51.1006 201.501 49.8549 200.903 48.7587 200.106C47.6626 199.309 46.8654 197.714 46.3671 195.323C45.8688 192.931 45.7194 191.436 45.9187 190.838C46.118 190.24 46.5664 190.041 47.264 190.24C47.9615 190.44 50.2535 190.44 54.1399 190.24C58.0264 190.041 61.6636 190.639 65.0518 192.034C68.44 193.429 71.1306 194.077 73.1236 193.977C75.1166 193.878 76.3623 193.927 76.8605 194.127C77.1097 194.226 77.3588 194.326 77.6079 194.426C77.3588 194.226 77.1097 194.027 76.8605 193.828C76.3623 193.429 75.2661 193.13 73.572 192.931C71.8779 192.732 70.4828 192.184 69.3867 191.287C68.2905 190.39 66.6961 189.543 64.6034 188.746C62.5107 187.948 60.9163 187.5 59.8201 187.4C58.7239 187.301 56.8305 187.45 54.1399 187.849C51.4493 188.247 49.1075 188.297 47.1145 187.998C45.1214 187.699 41.3845 186.105 35.9037 183.215C30.4228 180.325 27.3336 178.581 26.636 177.983C25.9385 177.385 25.2409 176.389 24.5434 174.994C23.8458 173.598 23.8458 172.104 24.5434 170.509C25.2409 168.915 26.1378 167.52 27.234 166.324C28.3301 165.128 30.0242 163.982 32.3162 162.886C34.6082 161.79 37.0497 160.943 39.6406 160.345C42.2315 159.747 44.0751 159.199 45.1713 158.701C46.2674 158.202 47.8619 156.907 49.9546 154.814C52.0472 152.721 54.4389 149.682 57.1295 145.696C59.8201 141.71 61.3647 139.767 61.7633 139.866C62.1619 139.966 63.3079 141.162 65.2013 143.454C67.0947 145.746 68.988 148.436 70.8814 151.526C72.7748 154.615 73.9208 156.757 74.3194 157.953C74.718 159.149 75.3658 161.74 76.2626 165.726C77.1595 169.712 77.7076 173.15 77.9069 176.04C78.1062 178.93 78.5546 181.969 79.2522 185.158C79.9497 188.347 80.9463 190.888 82.2417 192.781C83.5372 194.675 85.1815 196.419 87.1745 198.013C89.1675 199.608 90.5128 200.504 91.2104 200.704C91.908 200.903 92.3066 201.252 92.4062 201.75C92.5059 202.248 92.0574 203.743 91.0609 206.234C90.0644 208.726 89.2174 210.37 88.5198 211.167C87.8222 211.964 87.1745 212.413 86.5766 212.512C85.9787 212.612 84.4839 211.915 82.0923 210.42C79.7006 208.925 77.01 206.633 74.0205 203.544C71.0309 200.455 68.141 198.362 65.3508 197.266C63.9556 196.718 62.5605 196.17 61.1654 195.622C62.2117 196.269 63.2581 196.917 64.3044 197.565C66.3971 198.86 68.8386 201.053 71.6288 204.142C74.4191 207.231 77.2591 210.021 80.149 212.512C83.0389 215.004 84.4839 217.346 84.4839 219.538C84.4839 221.73 84.8825 223.574 85.6797 225.069C86.0783 225.816 86.4769 226.563 86.8755 227.311C86.6264 227.361 86.3773 227.41 86.1282 227.46C85.6299 227.56 84.7829 227.361 83.587 226.862C82.3912 226.364 80.8964 225.218 79.1027 223.424C77.309 221.631 75.4156 220.634 73.4225 220.435C71.4295 220.235 69.2372 220.734 66.8455 221.93C64.4539 223.125 62.8096 225.118 61.9128 227.909C61.0159 230.699 59.8201 232.393 58.3253 232.991C56.8305 233.589 55.834 234.137 55.3358 234.635C54.8375 235.133 54.5884 235.781 54.5884 236.578C54.5884 237.376 54.8375 237.974 55.3358 238.372C55.834 238.771 56.4817 238.97 57.279 238.97C58.0762 238.97 58.7737 238.771 59.3716 238.372C59.9696 237.974 61.0657 235.632 62.6602 231.347C64.2546 227.062 65.5501 224.57 66.5466 223.873C67.5431 223.175 68.9382 222.826 70.732 222.826C72.5257 222.826 74.718 223.823 77.309 225.816C79.8999 227.809 81.594 228.905 82.3912 229.104C83.1884 229.304 84.4839 229.354 86.2776 229.254C87.1745 229.204 88.0714 229.154 88.9682 229.104C88.9682 229.254 88.9682 229.403 88.9682 229.553C88.9682 229.852 88.6693 230.4 88.0714 231.197C87.4735 231.994 86.8257 232.493 86.1282 232.692C85.4306 232.891 85.032 233.24 84.9323 233.738C84.8327 234.237 84.4839 234.785 83.886 235.383C83.2881 235.98 82.0923 236.628 80.2985 237.326C78.5048 238.023 77.3588 238.621 76.8605 239.119C76.3623 239.618 74.7678 242.209 72.0773 246.892C69.3867 251.576 67.4933 254.267 66.3971 254.964C65.3009 255.662 63.9058 256.21 62.2117 256.608C60.5176 257.007 59.1723 257.505 58.1758 258.103C57.1793 258.701 56.5316 259.349 56.2326 260.046C55.9337 260.744 55.7842 261.491 55.7842 262.289C55.7842 262.687 55.7842 263.086 55.7842 263.484C56.3821 262.886 56.98 262.289 57.5779 261.691C58.7737 260.495 59.9197 259.698 61.0159 259.299C62.1121 258.9 63.6069 258.103 65.5002 256.907C67.3936 255.712 68.6891 254.765 69.3867 254.067C70.0842 253.37 71.1804 251.526 72.6752 248.537C74.1699 245.547 75.2661 243.654 75.9637 242.856C76.6612 242.059 78.156 241.013 80.448 239.717C82.74 238.422 84.2846 237.276 85.0818 236.279C85.879 235.283 86.8755 234.486 88.0714 233.888C89.2672 233.29 90.1142 232.592 90.6125 231.795C91.1107 230.998 91.908 230.749 93.0041 231.048C94.1003 231.347 94.8975 232.891 95.3958 235.682C95.894 238.472 96.3425 242.109 96.7411 246.593C97.1397 251.078 97.4386 253.469 97.6379 253.768C97.8372 254.067 97.7874 258.352 97.4885 266.623C97.1895 274.894 97.2393 280.624 97.6379 283.813C98.0365 287.002 98.186 289.942 98.0864 292.633C97.9867 295.323 97.4885 298.263 96.5916 301.452C95.6947 304.641 95.2961 308.328 95.3958 312.513C95.4456 314.606 95.4954 316.698 95.5452 318.791C94.6484 318.442 93.7515 318.094 92.8546 317.745C91.0609 317.047 89.6658 316.2 88.6693 315.204C87.6728 314.207 87.0748 313.211 86.8755 312.214C86.6762 311.218 86.8257 309.822 87.324 308.029C87.8222 306.235 87.8222 304.74 87.324 303.544C86.8257 302.349 86.4271 301.8 86.1282 301.9C85.8292 302 85.8292 302.897 86.1282 304.591C86.4271 306.285 86.3275 307.63 85.8292 308.627C85.3309 309.623 85.0818 310.719 85.0818 311.915C85.0818 313.111 85.3309 314.257 85.8292 315.353C86.3275 316.449 87.2243 317.595 88.5198 318.791C89.8153 319.987 90.463 320.784 90.463 321.183C90.463 321.581 90.164 322.179 89.5661 322.976C88.9682 323.774 88.4201 324.122 87.9219 324.023C87.4236 323.923 86.178 323.126 84.1849 321.631C82.1919 320.136 80.1989 319.19 78.2058 318.791C76.2128 318.392 74.3692 317.595 72.6752 316.399C70.9811 315.204 69.9347 314.606 69.5361 314.606C69.1375 314.606 68.8884 314.755 68.7887 315.054C68.6891 315.353 69.4863 316.25 71.1804 317.745C72.8745 319.24 75.017 320.435 77.6079 321.332C80.1989 322.229 82.1919 323.674 83.587 325.667C84.9822 327.66 86.7261 329.504 88.8187 331.198C90.9114 332.892 94.1501 334.187 98.5348 335.084C102.919 335.981 106.009 336.878 107.802 337.775C109.596 338.672 111.49 339.319 113.483 339.718C115.476 340.117 117.917 341.362 120.807 343.455C123.697 345.548 125.939 346.993 127.533 347.79C129.128 348.587 130.075 348.986 130.374 348.986C130.523 348.986 130.672 348.986 130.822 348.986C130.822 348.836 130.822 348.687 130.822 348.537C130.822 348.238 129.776 347.491 127.683 346.295C125.59 345.099 123.747 343.754 122.152 342.259C120.558 340.764 118.515 339.419 116.024 338.223C113.532 337.027 110.742 335.134 107.653 332.543C104.564 329.952 103.069 328.308 103.169 327.61C103.268 326.913 103.617 326.414 104.215 326.115C104.813 325.817 105.61 325.069 106.607 323.873C107.603 322.678 108.5 320.336 109.297 316.848C110.094 313.36 110.892 311.267 111.689 310.57C112.486 309.872 113.233 309.474 113.931 309.374C114.629 309.274 115.426 308.876 116.323 308.178C117.22 307.481 117.967 306.285 118.565 304.591C119.163 302.897 119.462 301.352 119.462 299.957C119.462 298.562 119.113 296.818 118.415 294.725C117.718 292.633 117.02 290.889 116.323 289.493C115.625 288.098 115.077 287.351 114.678 287.251C114.479 287.201 114.28 287.152 114.08 287.102C114.678 288.696 115.276 290.291 115.874 291.885C117.07 295.074 117.768 297.117 117.967 298.014C118.166 298.911 118.166 300.007 117.967 301.302C117.768 302.598 117.319 303.843 116.622 305.039C115.924 306.235 114.928 306.982 113.632 307.281C112.337 307.58 111.141 308.128 110.045 308.926C108.948 309.723 107.703 311.815 106.308 315.204C104.913 318.592 104.016 320.535 103.617 321.033C103.218 321.532 102.87 321.781 102.571 321.781C102.272 321.781 101.923 320.386 101.524 317.595C101.126 314.805 100.627 312.961 100.03 312.065C99.4317 311.168 99.1327 309.773 99.1327 307.879C99.1327 305.986 99.3818 303.843 99.8801 301.452C100.378 299.06 100.627 296.668 100.627 294.277C100.627 291.885 100.179 288.746 99.2822 284.86C98.3853 280.973 97.9369 277.784 97.9369 275.293C97.9369 272.802 98.1362 270.51 98.5348 268.417C98.9334 266.324 99.1327 264.381 99.1327 262.587C99.1327 260.794 99.2324 259.747 99.4317 259.448C99.631 259.15 99.7306 256.309 99.7306 250.928C99.7306 245.547 99.9797 240.863 100.478 236.877C100.976 232.891 101.624 230.848 102.421 230.749C103.218 230.649 104.414 230.051 106.009 228.955C106.806 228.407 107.603 227.859 108.4 227.311C108.699 228.756 108.998 230.201 109.297 231.646C109.895 234.536 110.443 236.628 110.941 237.924C111.44 239.219 111.988 240.166 112.586 240.764C113.184 241.362 113.732 242.308 114.23 243.604C114.728 244.899 115.226 245.796 115.725 246.294C116.223 246.793 116.821 247.739 117.518 249.135C118.216 250.53 119.412 252.174 121.106 254.067C122.8 255.961 123.846 257.705 124.245 259.299C124.644 260.893 124.793 262.189 124.693 263.185C124.594 264.182 124.893 265.328 125.59 266.623C126.288 267.919 127.185 269.065 128.281 270.061C129.377 271.058 130.423 271.706 131.42 272.005C132.416 272.304 133.164 272.802 133.662 273.499C134.16 274.197 134.659 274.446 135.157 274.247C135.406 274.147 135.655 274.047 135.904 273.948C135.705 273.599 135.506 273.25 135.306 272.901C134.908 272.204 134.061 271.506 132.765 270.809C131.47 270.111 130.274 269.115 129.178 267.819C128.082 266.524 127.484 264.83 127.384 262.737C127.284 260.644 127.484 259.548 127.982 259.448C128.48 259.349 128.929 259.399 129.327 259.598C129.726 259.797 131.021 260.644 133.214 262.139C135.406 263.634 137.1 265.029 138.296 266.324C139.492 267.62 140.986 268.965 142.78 270.36C144.574 271.755 145.82 273.051 146.517 274.247C147.215 275.443 147.563 277.186 147.563 279.478C147.563 281.77 147.862 283.116 148.46 283.514C149.058 283.913 149.756 284.013 150.553 283.813C151.35 283.614 152.048 283.116 152.646 282.319C153.244 281.521 153.592 280.575 153.692 279.478C153.792 278.382 153.044 276.638 151.45 274.247C149.855 271.855 147.962 269.663 145.77 267.67C143.577 265.677 139.741 263.086 134.26 259.897C128.779 256.708 124.992 254.017 122.9 251.825C120.807 249.633 119.262 247.64 118.266 245.846C117.269 244.052 116.622 242.458 116.323 241.063C116.024 239.668 115.725 238.821 115.426 238.522C115.127 238.223 114.728 236.23 114.23 232.542C113.732 228.855 113.233 226.464 112.735 225.368C112.486 224.819 112.237 224.271 111.988 223.723C112.337 223.723 112.685 223.723 113.034 223.723C113.732 223.723 114.429 223.524 115.127 223.125C115.824 222.727 116.871 222.577 118.266 222.677C119.661 222.777 121.505 223.275 123.797 224.172C126.089 225.069 128.281 226.115 130.374 227.311C132.466 228.507 135.805 229.852 140.389 231.347C142.681 232.094 144.973 232.841 147.265 233.589C147.265 232.941 147.265 232.293 147.265 231.646C147.265 230.35 147.015 229.403 146.517 228.806C146.019 228.208 144.674 228.058 142.481 228.357C140.289 228.656 138.595 228.556 137.399 228.058C136.203 227.56 134.659 226.663 132.765 225.368C130.872 224.072 129.277 223.275 127.982 222.976C126.686 222.677 125.491 222.229 124.394 221.631C123.298 221.033 121.754 220.485 119.761 219.986C117.768 219.488 116.223 219.289 115.127 219.388C114.579 219.438 114.031 219.488 113.483 219.538C113.582 219.239 113.682 218.94 113.782 218.641C113.981 218.043 115.077 216.399 117.07 213.708C119.063 211.018 120.857 209.124 122.451 208.028C124.046 206.932 125.391 206.234 126.487 205.935C127.583 205.637 130.523 205.387 135.306 205.188C140.09 204.989 143.976 204.142 146.966 202.647C149.955 201.152 153.044 198.063 156.233 193.379C159.422 188.696 162.063 185.557 164.155 183.962C166.248 182.368 167.843 181.371 168.939 180.973C170.035 180.574 171.53 180.375 173.423 180.375C175.316 180.375 176.512 180.524 177.011 180.823C177.509 181.122 177.907 181.122 178.206 180.823C178.356 180.674 178.505 180.524 178.655 180.375C178.256 180.076 177.858 179.777 177.459 179.478C176.662 178.88 175.665 178.531 174.469 178.432C173.274 178.332 171.679 178.531 169.686 179.029C167.693 179.528 165.899 180.325 164.305 181.421C162.711 182.517 161.814 183.065 161.614 183.065C161.415 183.065 161.216 182.816 161.016 182.318C160.917 182.069 160.817 181.82 160.718 181.571C159.97 182.966 159.223 184.361 158.475 185.756C156.981 188.546 155.037 191.436 152.646 194.426C150.254 197.415 147.862 199.458 145.471 200.554C143.079 201.65 140.538 202.248 137.847 202.348C135.157 202.448 133.014 202.398 131.42 202.199C129.825 201.999 128.281 202.049 126.786 202.348C125.291 202.647 123.846 203.095 122.451 203.693C121.056 204.291 119.86 204.989 118.864 205.786C117.867 206.583 116.97 207.53 116.173 208.626C115.376 209.722 114.429 211.516 113.333 214.007C112.785 215.253 112.237 216.499 111.689 217.744C111.689 217.445 111.689 217.146 111.689 216.847C111.689 216.249 111.39 215.253 110.792 213.858C110.194 212.463 109.148 211.068 107.653 209.672C106.158 208.277 105.012 206.832 104.215 205.338C103.418 203.843 102.919 202.647 102.72 201.75C102.521 200.853 102.172 200.156 101.674 199.657C101.176 199.159 101.225 197.565 101.823 194.874C102.421 192.184 103.667 190.041 105.56 188.447C107.454 186.852 108.948 185.158 110.045 183.364C111.141 181.571 112.386 180.474 113.782 180.076C115.177 179.677 116.572 179.029 117.967 178.133C119.362 177.236 121.355 175.392 123.946 172.602C126.537 169.812 128.331 167.42 129.327 165.427C130.324 163.434 131.27 162.139 132.167 161.541C133.064 160.943 134.011 160.544 135.007 160.345C136.004 160.145 136.701 159.797 137.1 159.298C137.499 158.8 137.748 158.202 137.847 157.505C137.947 156.807 137.798 156.159 137.399 155.561C137 154.964 136.502 154.615 135.904 154.515C135.306 154.415 134.758 154.465 134.26 154.665C133.762 154.864 132.865 156.01 131.569 158.103C130.274 160.195 129.277 161.441 128.58 161.84C127.882 162.238 127.185 163.284 126.487 164.979C125.79 166.673 125.192 167.619 124.693 167.819C124.195 168.018 123.398 168.716 122.302 169.911C121.206 171.107 118.664 172.552 114.678 174.246C110.692 175.94 108.301 177.286 107.503 178.282C106.706 179.279 106.158 180.175 105.859 180.973C105.56 181.77 105.211 182.368 104.813 182.766C104.414 183.165 103.617 183.613 102.421 184.112C101.823 184.361 101.225 184.61 100.627 184.859C100.329 181.77 100.03 178.681 99.7306 175.591C99.1327 169.413 98.7839 162.587 98.6843 155.113C98.5846 147.639 98.6344 141.411 98.8338 136.428C99.0331 131.446 99.0331 128.905 98.8338 128.805C98.6344 128.705 98.5348 128.207 98.5348 127.31C98.5348 126.413 98.6344 125.815 98.8338 125.516C99.0331 125.218 98.9832 124.221 98.6843 122.527C98.3853 120.833 98.2857 117.295 98.3853 111.914C98.485 106.533 98.8836 101.849 99.5811 97.8631C100.279 93.877 102.571 91.9837 106.457 92.183C110.344 92.3823 114.031 92.8307 117.518 93.5283C121.006 94.2258 124.195 94.6743 127.085 94.8736C129.975 95.0729 133.612 96.169 137.997 98.1621C142.382 100.155 146.069 101.5 149.058 102.198C152.048 102.896 154.738 103.743 157.13 104.739C159.522 105.736 161.565 106.433 163.259 106.832C164.953 107.23 166.049 107.43 166.547 107.43C167.045 107.43 167.494 107.23 167.892 106.832C168.291 106.433 168.54 105.885 168.64 105.188C168.739 104.49 166.547 103.294 162.063 101.6C157.578 99.906 153.393 98.76 149.507 98.1621C145.62 97.5642 142.481 96.8666 140.09 96.0694C137.698 95.2722 133.114 94.176 126.338 92.7809C119.561 91.3857 115.874 90.5885 115.276 90.3892C114.678 90.1899 113.981 89.7415 113.184 89.0439C112.386 88.3464 110.742 87.4993 108.251 86.5028C105.76 85.5063 104.414 84.8586 104.215 84.5596C104.115 84.4101 104.016 84.2606 103.916 84.1112C106.557 83.2641 109.198 82.4171 111.838 81.57C117.12 79.876 120.359 78.9791 121.554 78.8794C122.75 78.7798 124.544 78.3812 126.936 77.6836C129.327 76.9861 132.666 75.8899 136.951 74.3951C141.236 72.9003 147.115 71.7045 154.589 70.8077C162.063 69.9108 166.996 69.2132 169.387 68.715C171.779 68.2167 173.573 67.7184 174.768 67.2202C175.964 66.7219 176.911 66.4728 177.608 66.4728C178.306 66.4728 178.904 66.3233 179.402 66.0244C179.9 65.7254 180.548 65.5759 181.345 65.5759C182.143 65.5759 182.591 65.7752 182.691 66.1738C182.79 66.5725 182.741 67.0209 182.541 67.5191C182.342 68.0174 182.043 68.3662 181.644 68.5655C181.246 68.7648 180.748 69.7115 180.15 71.4056C179.552 73.0996 178.954 74.2456 178.356 74.8435C177.758 75.4415 176.512 76.0394 174.619 76.6373C172.726 77.2352 171.031 77.4843 169.537 77.3847C168.042 77.285 166.248 76.9362 164.155 76.3383C162.063 75.7404 159.671 75.4913 156.981 75.5909C154.29 75.6906 151.699 76.3882 149.208 77.6836C146.716 78.9791 144.474 80.8227 142.481 83.2143C140.488 85.6059 138.694 87.1505 137.1 87.8481C135.506 88.5457 134.559 89.1934 134.26 89.7913C134.11 90.0903 133.961 90.3892 133.812 90.6882C134.858 90.1899 135.904 89.6917 136.951 89.1934C139.043 88.1969 140.986 86.6523 142.78 84.5596C144.574 82.4669 145.969 81.0718 146.966 80.3742C147.962 79.6767 149.208 79.0289 150.703 78.431C152.197 77.8331 154.29 77.5341 156.981 77.5341C159.671 77.5341 162.511 78.0822 165.501 79.1784C168.49 80.2746 171.031 80.8227 173.124 80.8227C175.217 80.8227 176.761 80.6732 177.758 80.3742C178.754 80.0753 179.602 79.7265 180.299 79.3279C180.997 78.9293 181.993 76.9362 183.289 73.3488C184.584 69.7613 185.78 68.0672 186.876 68.2665C187.972 68.4658 189.268 68.5157 190.763 68.416C192.257 68.3164 193.453 69.5122 194.35 72.0035C195.247 74.4948 196.393 76.1888 197.788 77.0857C199.183 77.9826 201.176 78.4808 203.767 78.5805C206.358 78.6801 208.301 78.5805 209.597 78.2815C210.892 77.9826 213.882 77.7335 218.565 77.5341C223.249 77.3348 226.338 77.3847 227.833 77.6836C229.328 77.9826 230.374 78.431 230.972 79.0289C231.57 79.6268 232.018 80.3244 232.317 81.1216C232.616 81.9188 233.065 82.3174 233.663 82.3174C234.261 82.3174 234.908 82.1181 235.606 81.7195C236.303 81.3209 236.702 80.7728 236.802 80.0753C236.901 79.3777 236.453 78.73 235.456 78.1321C234.46 77.5341 232.915 76.9362 230.823 76.3383C228.73 75.7404 225.641 75.2422 221.555 74.8435C217.469 74.4449 213.234 73.7474 208.849 72.7509C204.465 71.7543 201.575 70.409 200.18 68.715C198.784 67.0209 197.987 65.9745 197.788 65.5759C197.589 65.1773 197.539 64.6292 197.638 63.9317C197.738 63.2341 198.236 62.8853 199.133 62.8853C200.03 62.8853 202.123 63.4832 205.411 64.6791C208.7 65.8749 211.739 66.6223 214.529 66.9212C217.32 67.2202 219.263 67.27 220.359 67.0707C221.455 66.8714 223.398 67.2202 226.189 68.1171C227.584 68.5655 228.979 69.0139 230.374 69.4624C230.324 69.2631 230.274 69.0637 230.225 68.8644C230.125 68.4658 229.726 68.0174 229.029 67.5191C228.331 67.0209 226.687 66.423 224.096 65.7254C221.505 65.0279 219.213 64.5794 217.22 64.3801C215.227 64.1808 213.633 63.8819 212.437 63.4832C211.241 63.0846 210.195 62.5864 209.298 61.9885C208.401 61.3906 207.952 60.992 207.952 60.7926C207.952 60.5933 209.049 60.394 211.241 60.1947C213.433 59.9954 215.825 59.2979 218.416 58.1021C221.007 56.9062 223.648 56.2087 226.338 56.0094C229.029 55.8101 231.819 56.408 234.709 57.8031C237.599 59.1982 240.588 60.3442 243.678 61.2411C246.767 62.1379 249.009 62.5864 250.404 62.5864C251.799 62.5864 254.141 62.2376 257.43 61.54C260.718 60.8425 263.957 60.6432 267.146 60.9421C270.334 61.2411 272.078 61.2909 272.377 61.0916C272.676 60.8923 272.726 60.394 272.527 59.5968C272.327 58.7996 271.829 58.0024 271.032 57.2052C270.235 56.408 269.288 55.8599 268.192 55.5609C267.096 55.262 266.249 55.3616 265.651 55.8599C265.053 56.3581 263.957 56.8564 262.362 57.3547C260.768 57.8529 259.771 58.3014 259.373 58.7C258.974 59.0986 257.031 59.5968 253.543 60.1947C250.055 60.7926 247.165 60.7926 244.873 60.1947C242.581 59.5968 240.04 58.6003 237.25 57.2052C234.46 55.8101 232.417 54.963 231.121 54.6641C229.826 54.3651 228.281 54.2655 226.488 54.3651C224.694 54.4648 222.153 55.2122 218.864 56.6073C215.576 58.0024 212.138 58.6501 208.55 58.5505C206.757 58.5007 204.963 58.4508 203.169 58.401C204.265 57.6536 205.361 56.9062 206.458 56.1588C208.65 54.6641 210.444 53.6177 211.839 53.0198C213.234 52.4219 218.017 51.2261 226.189 49.4323C234.36 47.6386 239.343 46.2933 241.136 45.3965C242.93 44.4996 245.123 43.9515 247.714 43.7522C250.304 43.5529 251.849 43.5529 252.347 43.7522C252.846 43.9515 254.739 44.0013 258.027 43.9017C261.316 43.802 263.558 43.8518 264.754 44.0512C265.95 44.2505 267.096 44.1508 268.192 43.7522C269.288 43.3536 270.185 42.7557 270.883 41.9585C271.231 41.5599 271.58 41.1613 271.929 40.7626C272.577 41.3606 273.224 41.9585 273.872 42.5564C275.168 43.7522 276.264 44.4996 277.161 44.7985C278.057 45.0975 278.805 45.4961 279.403 45.9944C280.001 46.4926 280.748 47.4393 281.645 48.8344C282.093 49.532 282.542 50.2296 282.99 50.9271C282.99 50.379 282.99 49.831 282.99 49.2829C282.99 48.1867 282.542 46.9411 281.645 45.5459C280.748 44.1508 279.901 43.1045 279.104 42.4069C278.307 41.7093 277.908 41.1613 277.908 40.7626C277.908 40.5633 277.908 40.364 277.908 40.1647C278.307 40.3142 278.705 40.4637 279.104 40.6132C279.901 40.9121 280.898 40.9619 282.093 40.7626C283.289 40.5633 283.937 40.364 284.037 40.1647C284.136 39.9654 284.983 39.9156 286.578 40.0153C288.172 40.1149 289.617 40.364 290.913 40.7626C292.208 41.1613 294.201 42.0581 296.892 43.4532C299.582 44.8484 301.227 45.5459 301.824 45.5459C302.123 45.5459 302.422 45.5459 302.721 45.5459C302.721 45.3965 302.721 45.247 302.721 45.0975C302.721 44.7985 302.273 44.3999 301.376 43.9017C300.479 43.4034 298.137 42.2574 294.351 40.4637C290.564 38.67 286.428 37.4243 281.944 36.7267C277.46 36.0292 274.769 35.3814 273.872 34.7835C272.975 34.1856 272.228 33.3884 271.63 32.3919C271.032 31.3954 270.235 30.648 269.238 30.1497C268.242 29.6515 265.452 29.502 260.868 29.7013C256.284 29.9006 252.895 29.6515 250.703 28.9539C248.511 28.2563 246.318 28.0072 244.126 28.2065C241.934 28.4058 240.788 28.7048 240.688 29.1034C240.638 29.3027 240.588 29.502 240.539 29.7013C241.386 29.7511 242.233 29.8009 243.08 29.8508C244.774 29.9504 246.468 30.5982 248.162 31.794C249.856 32.9898 251.899 33.8368 254.291 34.3351C256.682 34.8334 257.878 35.4313 257.878 36.1288C257.878 36.8264 257.081 37.6734 255.486 38.67C253.892 39.6665 251.55 40.5135 248.461 41.2111C245.372 41.9086 242.93 42.7059 241.136 43.6027C239.343 44.4996 237.101 45.1971 234.41 45.6954C231.719 46.1937 229.378 46.7916 227.385 47.4891C225.392 48.1867 223.598 48.6351 222.003 48.8344C220.409 49.0337 219.064 49.3327 217.967 49.7313C216.871 50.1299 215.078 50.3292 212.586 50.3292C210.095 50.3292 208.152 50.4787 206.757 50.7776C205.361 51.0766 203.917 51.6745 202.422 52.5714C200.927 53.4682 199.98 53.9167 199.582 53.9167C199.183 53.9167 198.735 54.1658 198.236 54.6641C197.738 55.1623 196.991 55.262 195.994 54.963C194.998 54.6641 193.553 54.5644 191.659 54.6641C189.766 54.7637 188.421 54.963 187.623 55.262C186.826 55.5609 186.179 56.0094 185.68 56.6073C185.182 57.2052 183.189 56.3581 179.701 54.0662C176.213 51.7742 173.423 50.1299 171.33 49.1334C169.238 48.1369 166.946 47.6386 164.454 47.6386C161.963 47.6386 158.077 46.9909 152.795 45.6954C147.514 44.3999 143.478 43.6027 140.687 43.3038C137.897 43.0048 135.356 42.4069 133.064 41.51C130.772 40.6132 129.526 39.9156 129.327 39.4173C129.128 38.9191 129.178 38.5703 129.477 38.371C129.776 38.1717 130.672 37.7233 132.167 37.0257C133.662 36.3281 135.057 35.8797 136.353 35.6804C137.648 35.4811 139.442 34.933 141.734 34.0361C144.026 33.1393 148.809 31.8438 156.084 30.1497C163.358 28.4556 167.643 27.6584 168.939 27.7581C170.234 27.8577 172.676 27.7581 176.263 27.4591C178.057 27.3097 179.851 27.1602 181.644 27.0107C181.644 27.1602 181.644 27.3097 181.644 27.4591C181.644 27.7581 181.395 28.1567 180.897 28.655C180.399 29.1532 179.352 29.7013 177.758 30.2992C176.164 30.8971 175.267 31.4452 175.067 31.9435C174.968 32.1926 174.868 32.4417 174.768 32.6908C175.914 32.641 177.06 32.5912 178.206 32.5414C180.498 32.4417 182.392 31.8936 183.887 30.8971C185.381 29.9006 186.926 30.0999 188.52 31.495C190.115 32.8902 191.709 33.8368 193.304 34.3351C194.898 34.8334 196.692 35.0327 198.685 34.933C200.678 34.8334 202.123 34.6341 203.02 34.3351C203.917 34.0361 204.963 33.4382 206.159 32.5414C207.355 31.6445 208.55 31.3456 209.746 31.6445C210.942 31.9435 212.586 32.1428 214.679 32.2424C216.772 32.3421 218.416 32.641 219.612 33.1393C220.808 33.6375 221.854 34.3351 222.751 35.232C223.648 36.1288 224.146 36.7766 224.246 37.1752C224.345 37.5738 224.544 37.7731 224.843 37.7731C224.993 37.7731 225.142 37.7731 225.292 37.7731C225.242 37.4243 225.192 37.0755 225.142 36.7267C225.043 36.0292 224.445 35.0825 223.349 33.8867C222.252 32.6908 220.907 31.6445 219.313 30.7476C217.718 29.8508 216.373 29.2529 215.277 28.9539C214.181 28.655 213.583 28.356 213.483 28.057C213.433 27.9076 213.383 27.7581 213.334 27.6086C214.529 27.6086 215.725 27.6086 216.921 27.6086C219.313 27.6086 221.605 27.509 223.797 27.3097C225.989 27.1103 227.185 26.911 227.385 26.7117C227.584 26.5124 228.232 26.5124 229.328 26.7117C230.424 26.911 231.221 26.9609 231.719 26.8612C232.218 26.7616 232.467 26.5124 232.467 26.1138C232.467 25.7152 231.67 25.217 230.075 24.6191C228.481 24.0211 226.687 23.5727 224.694 23.2738C222.701 22.9748 220.608 22.1776 218.416 20.8821C216.224 19.5866 214.729 18.5403 213.932 17.7431C213.134 16.9459 212.038 16.348 210.643 15.9494C209.248 15.5507 208.052 15.0525 207.056 14.4546C206.059 13.8567 204.963 13.4082 203.767 13.1093C202.571 12.8103 201.076 12.6608 199.283 12.6608C197.489 12.6608 195.097 13.2588 192.108 14.4546ZM324.694 47.3397C325.591 48.1369 327.335 48.8843 329.926 49.5818C332.517 50.2794 335.457 51.3756 338.745 52.8703C342.034 54.3651 343.927 55.3616 344.426 55.8599C344.924 56.3581 346.07 57.0557 347.864 57.9526C349.657 58.8494 350.554 59.4474 350.554 59.7463C350.554 60.0453 349.308 60.3442 346.817 60.6432C344.326 60.9421 342.183 61.0418 340.39 60.9421C338.596 60.8425 335.058 59.9954 329.777 58.401C324.495 56.8066 320.958 55.8599 319.164 55.5609C317.37 55.262 315.377 55.1125 313.185 55.1125C310.992 55.1125 308.551 55.5609 305.86 56.4578C303.17 57.3547 300.828 57.9526 298.835 58.2515C296.842 58.5505 294.749 58.4508 292.557 57.9526C290.364 57.4543 288.621 57.2052 287.325 57.2052C286.03 57.2052 284.535 56.7568 282.841 55.8599C281.147 54.963 279.652 54.4648 278.356 54.3651C277.061 54.2655 276.064 54.5146 275.367 55.1125C274.669 55.7104 274.321 56.3581 274.321 57.0557C274.321 57.7533 274.769 58.5007 275.666 59.2979C276.563 60.0951 278.406 60.4937 281.196 60.4937C283.987 60.4937 285.531 60.394 285.83 60.1947C286.129 59.9954 287.774 59.9954 290.763 60.1947C293.753 60.394 296.692 60.2446 299.582 59.7463C302.472 59.248 304.864 58.6501 306.757 57.9526C308.651 57.255 310.743 56.9062 313.035 56.9062C315.327 56.9062 317.47 57.0557 319.463 57.3547C321.456 57.6536 324.296 58.4508 327.983 59.7463C331.67 61.0418 335.407 62.0383 339.194 62.7359C342.981 63.4334 346.12 63.7822 348.611 63.7822C349.857 63.7822 351.102 63.7822 352.348 63.7822C352.298 63.8819 352.248 63.9815 352.198 64.0812C352.099 64.2805 348.91 65.5759 342.632 67.9676C336.354 70.3592 330.923 72.2028 326.339 73.4983C321.755 74.7937 318.217 75.9397 315.726 76.9362C313.235 77.9328 309.797 78.9791 305.412 80.0753C301.027 81.1714 297.29 81.7195 294.201 81.7195C291.112 81.7195 289.268 81.5202 288.67 81.1216C288.072 80.723 287.275 80.5237 286.279 80.5237C285.282 80.5237 284.385 80.6732 283.588 80.9721C282.791 81.2711 281.047 81.022 278.356 80.2247C275.666 79.4275 271.381 78.6303 265.501 77.8331C259.622 77.0359 256.483 76.7369 256.084 76.9362C255.885 77.0359 255.686 77.1355 255.486 77.2352C255.686 77.3847 255.885 77.5341 256.084 77.6836C256.483 77.9826 258.077 78.431 260.868 79.0289C263.658 79.6268 265.551 80.3244 266.548 81.1216C267.544 81.9188 269.537 82.9153 272.527 84.1112C275.516 85.307 277.011 86.0544 277.011 86.3533C277.011 86.6523 276.264 87.3 274.769 88.2965C273.274 89.2931 271.63 90.0404 269.836 90.5387C268.042 91.037 265.003 91.5352 260.718 92.0335C256.433 92.5317 253.145 93.2293 250.853 94.1262C248.561 95.023 245.571 95.8202 241.884 96.5178C238.197 97.2154 234.211 98.3115 229.926 99.8063C225.641 101.301 222.103 102.298 219.313 102.796C216.522 103.294 214.629 103.992 213.633 104.889C212.636 105.785 212.138 106.433 212.138 106.832C212.138 107.23 212.337 107.629 212.736 108.028C213.134 108.426 214.28 108.576 216.174 108.476C218.067 108.376 221.007 107.28 224.993 105.188C228.979 103.095 232.367 101.7 235.157 101.002C237.948 100.305 240.539 99.5074 242.93 98.6105C245.322 97.7136 248.062 97.0659 251.151 96.6673C252.696 96.468 254.241 96.2687 255.785 96.0694C255.885 96.9164 255.985 97.7635 256.084 98.6105C256.284 100.305 256.832 102.098 257.729 103.992C258.625 105.885 260.569 108.177 263.558 110.868C266.548 113.558 268.341 115.053 268.939 115.352C269.537 115.651 271.132 117.245 273.723 120.135C275.018 121.58 276.314 123.025 277.609 124.47C277.659 124.221 277.709 123.972 277.759 123.723C277.858 123.224 277.559 122.477 276.862 121.481C276.164 120.484 275.068 119.189 273.573 117.594C272.078 116 270.833 114.904 269.836 114.306C268.84 113.708 267.494 112.462 265.8 110.569C264.106 108.675 262.96 107.131 262.362 105.935C261.764 104.739 261.166 102.547 260.569 99.3579C259.971 96.169 259.971 94.4251 260.569 94.1262C261.166 93.8272 265.452 93.5781 273.424 93.3788C281.396 93.1795 285.581 93.8272 285.98 95.322C286.378 96.8168 286.877 100.155 287.475 105.337C288.072 110.519 288.421 114.854 288.521 118.342C288.621 121.829 288.621 125.516 288.521 129.403C288.421 133.289 288.172 136.927 287.774 140.315C287.375 143.703 287.225 149.931 287.325 158.999C287.425 168.068 287.325 174.744 287.026 179.029C286.727 183.315 286.677 186.603 286.877 188.895C286.976 190.041 287.076 191.187 287.176 192.333C286.877 192.034 286.578 191.735 286.279 191.436C285.681 190.838 284.634 190.34 283.14 189.941C281.645 189.543 280.848 189.194 280.748 188.895C280.648 188.596 280.549 187.4 280.449 185.308C280.349 183.215 280.499 180.724 280.898 177.834C281.296 174.944 281.396 171.954 281.196 168.865C280.997 165.776 280.349 162.039 279.253 157.654C278.157 153.269 276.961 149.832 275.666 147.34C274.37 144.849 272.975 142.956 271.48 141.66C269.986 140.365 268.989 139.119 268.491 137.923C267.993 136.727 267.295 136.08 266.398 135.98C265.501 135.88 264.405 135.432 263.11 134.635C261.814 133.837 260.469 133.389 259.074 133.289C257.679 133.19 256.234 132.542 254.739 131.346C253.992 130.748 253.244 130.15 252.497 129.552C252.746 130.051 252.995 130.549 253.244 131.047C253.742 132.044 254.39 132.841 255.187 133.439C255.985 134.037 257.18 134.485 258.775 134.784C260.369 135.083 261.565 135.631 262.362 136.428C263.16 137.226 264.007 137.674 264.903 137.774C265.8 137.873 266.348 138.222 266.548 138.82C266.747 139.418 267.445 140.414 268.64 141.81C269.836 143.205 271.181 145.148 272.676 147.639C274.171 150.13 275.317 152.871 276.114 155.86C276.911 158.85 277.559 161.59 278.057 164.082C278.556 166.573 278.755 169.214 278.655 172.004C278.556 174.794 278.307 177.086 277.908 178.88C277.509 180.674 277.36 182.866 277.46 185.457C277.559 188.048 277.808 189.842 278.207 190.838C278.606 191.835 279.702 192.981 281.495 194.276C283.289 195.572 284.485 197.664 285.083 200.554C285.681 203.444 285.282 206.334 283.887 209.224C282.492 212.114 281.047 214.256 279.552 215.652C278.057 217.047 277.061 218.242 276.563 219.239C276.064 220.235 275.716 221.282 275.516 222.378C275.317 223.474 274.769 224.62 273.872 225.816C272.975 227.012 271.281 228.108 268.79 229.104C267.544 229.603 266.299 230.101 265.053 230.599C264.754 229.154 264.455 227.709 264.156 226.264C263.558 223.375 262.412 220.485 260.718 217.595C259.024 214.705 257.33 212.512 255.636 211.018C253.942 209.523 252.297 208.277 250.703 207.281C249.109 206.284 247.963 204.889 247.265 203.095C246.568 201.302 245.77 199.657 244.873 198.163C243.977 196.668 242.482 194.924 240.389 192.931C238.296 190.938 236.004 189.393 233.513 188.297C231.022 187.201 227.086 186.653 221.704 186.653C216.323 186.653 212.686 186.204 210.793 185.308C208.899 184.411 207.952 183.663 207.952 183.065C207.952 182.467 207.604 181.521 206.906 180.225C206.209 178.93 205.511 178.232 204.813 178.133C204.116 178.033 203.518 178.282 203.02 178.88C202.521 179.478 202.372 180.225 202.571 181.122C202.771 182.019 203.917 183.265 206.009 184.859C208.102 186.454 210.444 187.6 213.035 188.297C215.626 188.995 217.918 189.294 219.911 189.194C221.904 189.094 224.295 189.194 227.086 189.493C229.876 189.792 232.218 190.44 234.111 191.436C236.004 192.433 237.698 193.628 239.193 195.024C240.688 196.419 242.382 199.408 244.276 203.992C246.169 208.576 247.664 211.416 248.76 212.512C249.856 213.609 251.052 214.406 252.347 214.904C253.643 215.402 254.789 216 255.785 216.698C256.782 217.395 258.127 219.937 259.821 224.321C261.515 228.706 262.312 230.998 262.213 231.197C262.113 231.396 261.465 231.646 260.27 231.945C259.074 232.244 258.227 232.343 257.729 232.244C257.23 232.144 255.187 232.393 251.6 232.991C248.012 233.589 246.219 233.987 246.219 234.187C246.219 234.386 245.77 234.685 244.873 235.084C244.425 235.283 243.977 235.482 243.528 235.682C245.023 235.582 246.518 235.482 248.012 235.383C251.002 235.183 254.241 234.785 257.729 234.187C261.216 233.589 263.16 234.087 263.558 235.682C263.957 237.276 264.854 239.418 266.249 242.109C267.644 244.8 268.74 246.593 269.537 247.49C270.334 248.387 270.584 249.284 270.285 250.181C269.986 251.078 269.388 252.224 268.491 253.619C267.594 255.014 266.498 256.359 265.202 257.655C263.907 258.95 260.369 261.043 254.589 263.933C248.81 266.823 245.123 268.866 243.528 270.061C241.934 271.257 240.439 272.702 239.044 274.396C237.649 276.09 236.752 277.037 236.353 277.236C235.955 277.436 235.307 278.532 234.41 280.525C233.513 282.518 233.065 283.963 233.065 284.86C233.065 285.757 233.314 286.753 233.812 287.849C234.31 288.945 234.809 289.643 235.307 289.942C235.805 290.241 236.403 290.39 237.101 290.39C237.798 290.39 238.396 290.091 238.894 289.493C239.393 288.896 239.592 287.6 239.492 285.607C239.393 283.614 239.153 279.706 239.552 278.81C239.95 277.913 243.332 274.719 246.221 272.028C249.111 269.338 251.341 268.725 253.534 267.13C255.726 265.536 256.856 265.63 257.753 265.132C258.65 264.634 258.725 265.677 259.223 265.876C259.722 266.075 259.921 267.022 259.821 268.716C259.722 270.41 259.173 272.005 258.177 273.499C257.18 274.994 255.835 276.29 254.141 277.386C252.447 278.482 251.55 279.329 251.45 279.927C251.351 280.525 251.5 280.874 251.899 280.973C252.297 281.073 252.696 280.774 253.095 280.076C253.493 279.379 254.291 278.831 255.486 278.432C256.682 278.034 257.729 277.436 258.625 276.638C259.522 275.841 260.369 274.745 261.166 273.35C261.964 271.955 262.362 270.51 262.362 269.015C262.362 267.52 262.861 265.727 263.857 263.634C264.854 261.541 266.149 259.598 267.744 257.804C269.338 256.01 270.484 254.466 271.181 253.17C271.879 251.875 272.327 251.227 272.527 251.227C272.726 251.227 273.125 251.626 273.723 252.423C274.321 253.22 275.118 253.968 276.114 254.665C277.111 255.363 278.506 256.16 280.3 257.057C282.093 257.954 283.688 258.601 285.083 259C286.478 259.399 287.275 260.744 287.475 263.036C287.674 265.328 287.674 268.218 287.475 271.706C287.275 275.193 287.325 277.635 287.624 279.03C287.923 280.425 287.923 282.468 287.624 285.159C287.325 287.849 287.375 289.444 287.774 289.942C288.172 290.44 288.77 290.689 289.567 290.689C290.364 290.689 291.112 290.241 291.809 289.344C292.507 288.447 292.856 287.7 292.856 287.102C292.856 286.504 292.706 285.956 292.407 285.458C292.108 284.959 291.66 283.265 291.062 280.375C290.464 277.485 289.966 273.549 289.567 268.567C289.169 263.584 289.268 259.498 289.866 256.309C290.464 253.121 290.763 250.679 290.763 248.985C290.763 247.291 290.962 245.049 291.361 242.259C291.76 239.468 292.407 237.924 293.304 237.625C294.201 237.326 294.849 237.176 295.247 237.176C295.646 237.176 295.945 237.425 296.144 237.924C296.344 238.422 297.539 239.767 299.732 241.96C301.924 244.152 303.718 245.597 305.113 246.294C306.508 246.992 307.853 247.889 309.149 248.985C310.444 250.081 311.441 251.277 312.138 252.572C312.836 253.868 313.484 255.512 314.082 257.505C314.679 259.498 315.128 260.495 315.427 260.495C315.726 260.495 316.374 260.943 317.37 261.84C318.367 262.737 319.363 263.435 320.36 263.933C321.356 264.431 322.751 264.929 324.545 265.428C326.339 265.926 327.485 266.524 327.983 267.221C328.481 267.919 328.83 268.965 329.029 270.36C329.229 271.755 329.528 272.453 329.926 272.453C330.325 272.453 330.674 271.855 330.973 270.659C331.272 269.463 331.272 268.367 330.973 267.371C330.674 266.374 329.926 265.477 328.73 264.68C327.535 263.883 325.492 263.086 322.602 262.289C319.712 261.491 317.769 260.345 316.772 258.851C315.776 257.356 314.679 255.114 313.484 252.124C312.288 249.135 311.291 247.291 310.494 246.593C309.697 245.896 308.302 244.999 306.309 243.903C304.316 242.807 302.771 241.71 301.675 240.614C300.579 239.518 299.981 238.721 299.881 238.223C299.782 237.724 299.483 237.226 298.984 236.728C298.486 236.23 298.237 235.881 298.237 235.682C298.237 235.582 298.237 235.482 298.237 235.383C299.134 235.482 300.031 235.582 300.928 235.682C302.721 235.881 304.266 235.781 305.561 235.383C306.857 234.984 308.003 234.386 308.999 233.589C309.996 232.792 310.594 232.144 310.793 231.646C310.992 231.147 311.59 230.649 312.587 230.151C313.583 229.653 314.779 229.354 316.174 229.254C317.569 229.154 318.765 229.354 319.762 229.852C320.758 230.35 321.306 230.998 321.406 231.795C321.506 232.592 321.854 233.29 322.452 233.888C323.05 234.486 323.698 235.931 324.396 238.223C325.093 240.515 325.99 242.259 327.086 243.454C328.182 244.65 329.976 245.846 332.467 247.042C334.959 248.238 337.749 251.227 340.838 256.01C343.927 260.794 345.821 263.335 346.518 263.634C347.216 263.933 347.864 264.032 348.461 263.933C349.059 263.833 349.807 263.285 350.704 262.289C351.6 261.292 351.949 260.345 351.75 259.448C351.551 258.552 350.504 257.705 348.611 256.907C346.718 256.11 344.426 254.067 341.735 250.779C339.044 247.49 337.251 245.547 336.354 244.949C335.457 244.351 334.112 243.703 332.318 243.006C330.524 242.308 329.229 241.561 328.431 240.764C327.634 239.967 326.638 238.223 325.442 235.532C324.246 232.841 323.598 230.998 323.499 230.001C323.399 229.005 322.901 228.158 322.004 227.46C321.107 226.763 320.609 226.165 320.509 225.667C320.409 225.168 319.961 224.869 319.164 224.77C318.367 224.67 317.27 224.819 315.875 225.218C314.48 225.617 313.484 225.965 312.886 226.264C312.288 226.563 311.391 227.361 310.195 228.656C308.999 229.952 307.455 231.048 305.561 231.945C303.668 232.841 302.323 233.34 301.525 233.439C301.127 233.489 300.728 233.539 300.33 233.589C300.678 232.891 301.027 232.194 301.376 231.496C302.074 230.101 302.472 228.457 302.572 226.563C302.671 224.67 302.871 223.723 303.17 223.723C303.469 223.723 304.017 223.325 304.814 222.527C305.611 221.73 306.309 220.883 306.907 219.986C307.505 219.089 307.804 218.442 307.804 218.043C307.804 217.645 308.102 217.096 308.7 216.399C309.298 215.701 310.195 215.004 311.391 214.306C312.587 213.609 313.982 213.16 315.576 212.961C317.171 212.762 318.466 212.363 319.463 211.765C320.459 211.167 321.107 210.619 321.406 210.121C321.555 209.872 321.705 209.623 321.854 209.373C321.157 209.772 320.459 210.171 319.762 210.569C318.367 211.366 316.971 211.865 315.576 212.064C314.181 212.263 312.886 212.612 311.69 213.11C310.494 213.609 308.75 214.804 306.458 216.698C304.166 218.591 302.671 219.638 301.974 219.837C301.276 220.036 300.28 219.438 298.984 218.043C297.689 216.648 296.593 214.605 295.696 211.915C294.799 209.224 295.696 206.733 298.386 204.441C301.077 202.149 303.17 199.807 304.664 197.415C306.159 195.024 307.455 191.635 308.551 187.251C309.647 182.866 310.494 178.83 311.092 175.143C311.69 171.456 312.537 167.918 313.633 164.53C314.729 161.142 316.573 157.804 319.164 154.515C321.755 151.227 323.299 148.984 323.798 147.789C324.296 146.593 325.99 144.699 328.88 142.108C331.77 139.518 333.364 137.873 333.663 137.176C333.962 136.478 334.112 135.731 334.112 134.934C334.112 134.136 333.613 133.239 332.617 132.243C331.62 131.246 330.873 130.898 330.375 131.197C329.876 131.496 328.83 132.791 327.236 135.083C325.641 137.375 323.798 140.713 321.705 145.098C319.612 149.483 317.669 152.721 315.875 154.814C314.082 156.907 312.487 159.747 311.092 163.334C309.697 166.922 308.651 170.509 307.953 174.097C307.255 177.684 306.259 181.87 304.963 186.653C303.668 191.436 302.572 194.625 301.675 196.219C300.778 197.814 299.881 199.059 298.984 199.956C298.087 200.853 297.24 201.501 296.443 201.9C295.646 202.298 295.048 202.896 294.649 203.693C294.251 204.491 293.902 204.939 293.603 205.039C293.304 205.138 292.806 204.789 292.108 203.992C291.411 203.195 291.112 201.999 291.212 200.405C291.311 198.81 291.112 196.917 290.614 194.725C290.115 192.532 289.866 184.51 289.866 170.659C289.866 156.807 289.916 149.632 290.016 149.134C290.115 148.636 291.162 148.237 293.155 147.938C295.148 147.639 296.493 147.29 297.191 146.892C297.888 146.493 298.586 145.895 299.283 145.098C299.981 144.301 300.529 143.454 300.928 142.557C301.326 141.66 301.725 139.368 302.123 135.681C302.522 131.994 303.17 129.752 304.067 128.954C304.963 128.157 305.81 127.161 306.608 125.965C307.405 124.769 307.953 123.673 308.252 122.676C308.551 121.68 308.651 120.783 308.551 119.986C308.451 119.189 308.651 118.391 309.149 117.594C309.398 117.196 309.647 116.797 309.896 116.398C309.398 116.897 308.9 117.395 308.401 117.893C307.405 118.89 306.707 120.285 306.309 122.078C305.91 123.872 304.714 125.815 302.721 127.908C300.728 130.001 299.582 132.243 299.283 134.635C298.984 137.026 298.486 139.019 297.789 140.614C297.091 142.208 296.493 143.205 295.995 143.603C295.497 144.002 294.351 144.251 292.557 144.351C290.763 144.45 289.816 144.351 289.717 144.052C289.617 143.753 289.717 143.404 290.016 143.005C290.315 142.607 290.364 142.308 290.165 142.108C289.966 141.909 289.816 141.212 289.717 140.016C289.617 138.82 289.767 137.375 290.165 135.681C290.564 133.987 290.763 132.542 290.763 131.346C290.763 130.15 290.663 129.403 290.464 129.104C290.265 128.805 290.265 123.822 290.464 114.156C290.663 104.49 291.112 97.9129 291.809 94.4251C292.507 90.9373 294.201 88.3962 296.892 86.8018C299.582 85.2073 302.671 83.8122 306.159 82.6164C309.647 81.4206 312.338 80.3244 314.231 79.3279C316.124 78.3314 320.31 76.8864 326.787 74.993C333.265 73.0996 338.347 71.9038 342.034 71.4056C345.721 70.9073 348.81 70.708 351.302 70.8077C353.793 70.9073 355.537 71.7045 356.533 73.1993C357.53 74.6941 358.576 75.9895 359.672 77.0857C360.768 78.1819 360.768 79.3279 359.672 80.5237C358.576 81.7195 356.284 83.2641 352.796 85.1575C349.308 87.0509 347.066 88.4958 346.07 89.4924C345.073 90.4889 344.176 92.2328 343.379 94.7241C342.582 97.2154 342.233 99.5074 342.333 101.6C342.433 103.693 342.881 105.785 343.678 107.878C344.475 109.971 344.824 112.362 344.725 115.053C344.625 117.744 343.927 119.886 342.632 121.481C341.336 123.075 339.692 124.47 337.699 125.666C335.706 126.862 334.71 127.958 334.71 128.954C334.71 129.951 335.208 130.997 336.204 132.093C337.201 133.19 338.247 133.588 339.343 133.289C340.439 132.99 341.386 132.392 342.183 131.496C342.981 130.599 344.226 128.506 345.92 125.218C347.614 121.929 348.511 119.089 348.611 116.697C348.711 114.306 348.063 111.914 346.668 109.522C345.273 107.131 344.426 105.237 344.127 103.842C343.828 102.447 343.678 101.301 343.678 100.404C343.678 99.5074 344.077 98.1122 344.874 96.2189C345.671 94.3255 346.718 92.8307 348.013 91.7345C349.308 90.6384 350.654 89.7913 352.049 89.1934C353.444 88.5955 354.989 87.6986 356.683 86.5028C358.377 85.307 359.971 83.9119 361.466 82.3174C362.213 81.5202 362.961 80.723 363.708 79.9258C363.559 81.4704 363.409 83.015 363.26 84.5596C362.961 87.6488 363.26 90.738 364.157 93.8272C365.053 96.9164 365.552 99.7565 365.651 102.347C365.751 104.938 365.502 107.33 364.904 109.522C364.306 111.715 363.459 113.409 362.363 114.605C361.267 115.8 360.37 116.996 359.672 118.192C358.975 119.388 357.978 121.53 356.683 124.62C355.387 127.709 354.54 130.399 354.142 132.691C353.743 134.983 353.494 137.026 353.394 138.82C353.295 140.614 353.344 141.66 353.544 141.959C353.643 142.108 353.743 142.258 353.843 142.407C353.992 141.062 354.142 139.717 354.291 138.372C354.59 135.681 355.188 133.09 356.085 130.599C356.982 128.107 358.078 125.815 359.373 123.723C360.669 121.63 362.164 119.786 363.858 118.192C365.552 116.598 366.847 114.754 367.744 112.661C368.641 110.569 369.189 107.978 369.388 104.889C369.588 101.799 369.438 99.2084 368.94 97.1157C368.442 95.023 368.143 93.0798 368.043 91.2861C367.943 89.4924 367.993 87.4993 368.192 85.307C368.392 83.1146 368.641 81.8192 368.94 81.4206C369.089 81.2213 369.239 81.022 369.388 80.8227C369.637 81.3707 369.887 81.9188 370.136 82.4669C370.634 83.5631 371.182 85.8052 371.78 89.1934C372.378 92.5816 372.876 94.8237 373.275 95.9199C373.673 97.0161 374.022 102.846 374.321 113.409C374.62 123.972 375.019 130.947 375.517 134.336C375.766 136.03 376.015 137.724 376.264 139.418C376.414 138.621 376.563 137.823 376.713 137.026C377.012 135.432 377.012 133.538 376.713 131.346C376.414 129.154 376.214 124.819 376.115 118.342C376.015 111.864 376.414 105.088 377.311 98.0126C378.208 90.9373 378.606 85.5561 378.506 81.869C378.407 78.1819 378.706 75.1923 379.403 72.9003C380.101 70.6083 380.45 69.0139 380.45 68.1171C380.45 67.2202 380.001 65.4763 379.104 62.8853C378.208 60.2944 376.812 58.3512 374.919 57.0557C373.026 55.7602 370.833 55.1623 368.342 55.262C365.851 55.3616 363.758 55.1623 362.064 54.6641C360.37 54.1658 358.676 53.9167 356.982 53.9167C355.288 53.9167 353.095 53.6675 350.405 53.1693C347.714 52.671 345.572 52.0731 343.977 51.3756C342.383 50.678 338.546 49.6317 332.467 48.2365C329.428 47.539 326.389 46.8414 323.349 46.1438C323.798 46.5424 324.246 46.9411 324.694 47.3397ZM235.755 83.8122C234.759 84.4101 234.161 85.3568 233.962 86.6523C233.762 87.9478 232.915 88.9941 231.42 89.7913C229.926 90.5885 228.032 91.1864 225.74 91.585C223.448 91.9837 221.057 92.183 218.565 92.183C216.074 92.183 213.832 91.9837 211.839 91.585C209.846 91.1864 207.454 91.037 204.664 91.1366C201.874 91.2363 199.731 91.4854 198.236 91.884C196.742 92.2826 195.596 92.731 194.798 93.2293C194.001 93.7276 193.104 94.6743 192.108 96.0694C191.111 97.4645 190.314 98.3115 189.716 98.6105C189.118 98.9095 188.819 99.2084 188.819 99.5074C188.819 99.8063 188.52 100.205 187.922 100.703C187.325 101.201 186.727 101.999 186.129 103.095C185.531 104.191 184.534 105.237 183.139 106.234C181.744 107.23 180.449 108.376 179.253 109.672C178.057 110.967 177.31 111.964 177.011 112.661C176.712 113.359 176.712 114.605 177.011 116.398C177.31 118.192 177.26 119.537 176.861 120.434C176.462 121.331 176.014 121.879 175.516 122.078C175.018 122.278 174.37 122.876 173.573 123.872C172.775 124.869 171.231 125.815 168.939 126.712C166.647 127.609 165.301 128.307 164.903 128.805C164.504 129.303 163.259 130.1 161.166 131.197C159.073 132.293 158.027 133.04 158.027 133.439C158.027 133.837 157.778 134.236 157.28 134.635C156.781 135.033 156.183 135.83 155.486 137.026C154.788 138.222 154.19 139.567 153.692 141.062C153.443 141.81 153.194 142.557 152.945 143.304C153.144 143.254 153.343 143.205 153.543 143.155C153.941 143.055 154.539 142.108 155.336 140.315C156.134 138.521 156.831 137.425 157.429 137.026C158.027 136.628 158.675 135.93 159.372 134.934C160.07 133.937 160.917 133.239 161.913 132.841C162.91 132.442 163.657 131.994 164.155 131.496C164.654 130.997 165.501 130.549 166.697 130.15C167.892 129.752 168.49 129.453 168.49 129.253C168.49 129.054 169.138 128.755 170.434 128.357C171.729 127.958 172.825 127.759 173.722 127.759C174.619 127.759 175.914 126.912 177.608 125.218C179.303 123.523 180.797 123.125 182.093 124.022C183.388 124.919 184.385 125.467 185.082 125.666C185.78 125.865 186.328 126.413 186.727 127.31C187.125 128.207 187.972 131.446 189.268 137.026C190.563 142.607 191.211 149.034 191.211 156.309C191.211 163.583 191.41 168.167 191.809 170.061C192.008 171.008 192.207 171.954 192.407 172.901C192.556 172.353 192.706 171.805 192.855 171.257C193.154 170.16 193.304 168.417 193.304 166.025C193.304 163.633 193.453 161.59 193.752 159.896C193.902 159.049 194.051 158.202 194.201 157.355C194.699 158.053 195.197 158.75 195.695 159.448C196.692 160.843 197.439 162.188 197.937 163.484C198.436 164.779 198.735 167.271 198.834 170.958C198.934 174.645 199.133 176.638 199.432 176.937C199.731 177.236 200.329 177.335 201.226 177.236C202.123 177.136 202.771 176.937 203.169 176.638C203.568 176.339 203.817 175.841 203.917 175.143C204.016 174.445 203.717 173.499 203.02 172.303C202.322 171.107 201.924 169.662 201.824 167.968C201.724 166.274 201.226 164.63 200.329 163.035C199.432 161.441 198.386 160.096 197.19 158.999C195.994 157.903 195.147 156.957 194.649 156.159C194.151 155.362 193.902 154.067 193.902 152.273C193.902 150.479 194.499 145.646 195.695 137.774C196.891 129.901 197.987 125.616 198.984 124.919C199.98 124.221 201.027 123.224 202.123 121.929C203.219 120.634 203.917 119.986 204.216 119.986C204.365 119.986 204.514 119.986 204.664 119.986C204.664 120.434 204.664 120.883 204.664 121.331C204.664 122.228 205.112 122.926 206.009 123.424C206.906 123.922 207.504 124.669 207.803 125.666C208.102 126.662 209.098 128.456 210.793 131.047C212.487 133.638 214.231 135.88 216.024 137.774C217.818 139.667 219.612 141.112 221.405 142.108C223.199 143.105 224.893 143.852 226.488 144.351C228.082 144.849 228.929 145.347 229.029 145.845C229.128 146.344 229.677 146.942 230.673 147.639C231.67 148.337 233.115 148.984 235.008 149.582C236.901 150.18 238.496 150.978 239.791 151.974C241.087 152.971 242.033 153.967 242.631 154.964C243.229 155.96 243.678 157.256 243.977 158.85C244.276 160.444 244.873 162.238 245.77 164.231C246.667 166.224 247.365 167.37 247.863 167.669C248.361 167.968 249.109 168.018 250.105 167.819C251.102 167.619 251.749 167.769 252.048 168.267C252.347 168.765 252.397 169.911 252.198 171.705C251.999 173.499 252.048 174.744 252.347 175.442C252.646 176.14 253.344 177.086 254.44 178.282C255.536 179.478 257.679 181.371 260.868 183.962C264.056 186.553 265.9 188.197 266.398 188.895C266.896 189.593 267.544 190.838 268.341 192.632C269.139 194.426 269.786 196.369 270.285 198.462C270.783 200.554 271.48 202.448 272.377 204.142C273.274 205.836 273.822 206.683 274.022 206.683C274.221 206.683 274.57 205.786 275.068 203.992C275.566 202.199 274.719 199.458 272.527 195.771C270.334 192.084 269.188 189.941 269.089 189.343C268.989 188.746 267.843 187.101 265.651 184.411C263.458 181.72 261.814 178.83 260.718 175.741C259.622 172.652 258.625 170.709 257.729 169.911C256.832 169.114 255.835 168.666 254.739 168.566C253.643 168.466 252.995 168.018 252.796 167.221C252.596 166.424 252.646 165.776 252.945 165.278C253.244 164.779 253.394 164.082 253.394 163.185C253.394 162.288 253.145 161.341 252.646 160.345C252.148 159.348 251.55 158.501 250.853 157.804C250.155 157.106 249.408 156.558 248.61 156.159C247.813 155.761 247.066 155.063 246.368 154.067C245.671 153.07 244.624 152.124 243.229 151.227C241.834 150.33 239.642 149.084 236.652 147.49C233.663 145.895 230.872 144.65 228.281 143.753C225.69 142.856 223.548 141.859 221.854 140.763C220.16 139.667 219.263 138.92 219.163 138.521C219.064 138.122 218.366 137.375 217.071 136.279C215.775 135.183 214.928 134.136 214.529 133.14C214.131 132.143 213.334 130.848 212.138 129.253C210.942 127.659 209.945 125.965 209.148 124.171C208.351 122.377 207.903 121.082 207.803 120.285C207.703 119.488 207.105 117.993 206.009 115.8C204.913 113.608 203.468 111.615 201.674 109.821C199.881 108.028 198.635 106.284 197.937 104.59C197.24 102.896 196.393 101.55 195.396 100.554C194.4 99.5572 193.902 98.9095 193.902 98.6105C193.902 98.3115 194.35 97.7136 195.247 96.8168C196.144 95.9199 197.539 95.0729 199.432 94.2756C201.326 93.4784 203.568 93.03 206.159 92.9303C208.75 92.8307 210.543 92.9303 211.54 93.2293C212.536 93.5283 214.729 93.6777 218.117 93.6777C221.505 93.6777 224.345 93.4784 226.637 93.0798C228.929 92.6812 230.673 92.2328 231.869 91.7345C233.065 91.2363 234.559 90.3892 236.353 89.1934C238.147 87.9976 239.193 86.8516 239.492 85.7554C239.791 84.6592 239.741 83.9119 239.343 83.5133C238.944 83.1146 238.496 82.9153 237.997 82.9153C237.499 82.9153 236.752 83.2143 235.755 83.8122ZM102.87 93.3788C102.82 93.5781 102.77 93.7774 102.72 93.9767C102.82 93.9269 102.919 93.877 103.019 93.8272C103.218 93.7276 103.268 93.5283 103.169 93.2293C103.119 93.0798 103.069 92.9303 103.019 92.7809C102.969 92.9802 102.919 93.1795 102.87 93.3788ZM307.804 119.687C307.853 119.786 307.903 119.886 307.953 119.986C308.003 120.085 308.053 120.185 308.102 120.285C308.053 120.185 308.003 120.085 307.953 119.986C307.903 119.886 307.853 119.786 307.804 119.687ZM151.001 146.443C150.653 147.191 150.304 147.938 149.955 148.686C150.204 148.586 150.453 148.486 150.703 148.387C151.201 148.187 151.699 147.639 152.197 146.742C152.696 145.845 152.945 145.248 152.945 144.949C152.945 144.65 152.795 144.45 152.496 144.351C152.197 144.251 151.699 144.949 151.001 146.443ZM148.012 150.031C147.713 150.33 146.816 150.629 145.321 150.928C143.827 151.227 142.431 151.675 141.136 152.273C139.84 152.871 139.342 153.668 139.641 154.665C139.94 155.661 140.438 156.309 141.136 156.608C141.833 156.907 142.531 156.957 143.229 156.757C143.926 156.558 144.424 156.259 144.723 155.86C145.022 155.462 145.172 155.013 145.172 154.515C145.172 154.017 145.919 153.17 147.414 151.974C148.161 151.376 148.909 150.778 149.656 150.18C149.457 150.081 149.258 149.981 149.058 149.881C148.66 149.682 148.311 149.732 148.012 150.031ZM375.816 156.159C375.716 157.754 375.467 159.149 375.068 160.345C374.67 161.541 374.62 163.484 374.919 166.174C375.218 168.865 375.118 171.057 374.62 172.751C374.122 174.445 373.873 176.837 373.873 179.926C373.873 181.471 373.873 183.016 373.873 184.56C373.125 184.261 372.378 183.962 371.63 183.663C370.136 183.065 368.292 182.667 366.1 182.467C363.907 182.268 361.516 181.023 358.925 178.731C356.334 176.439 354.49 175.143 353.394 174.844C352.298 174.545 350.953 174.445 349.358 174.545C347.764 174.645 346.967 174.794 346.967 174.994C346.967 175.093 346.967 175.193 346.967 175.293C347.664 175.293 348.362 175.293 349.059 175.293C350.454 175.293 351.85 175.542 353.245 176.04C354.64 176.538 355.686 177.136 356.384 177.834C357.081 178.531 357.679 179.378 358.177 180.375C358.676 181.371 359.573 182.467 360.868 183.663C362.164 184.859 363.957 185.955 366.249 186.952C368.541 187.948 369.837 188.696 370.136 189.194C370.435 189.692 370.534 190.19 370.435 190.689C370.335 191.187 369.986 191.635 369.388 192.034C368.79 192.433 366.897 193.031 363.708 193.828C360.519 194.625 358.476 195.273 357.58 195.771C356.683 196.269 355.686 197.066 354.59 198.163C353.494 199.259 352.248 200.205 350.853 201.003C349.458 201.8 346.718 202.996 342.632 204.59C338.546 206.185 335.307 207.281 332.916 207.879C331.72 208.178 330.524 208.477 329.328 208.776C329.727 208.825 330.126 208.875 330.524 208.925C331.321 209.025 332.816 208.925 335.008 208.626C337.201 208.327 339.443 207.829 341.735 207.131C344.027 206.434 346.967 205.288 350.554 203.693C354.142 202.099 357.38 201.102 360.27 200.704C363.16 200.305 365.452 199.857 367.146 199.358C368.84 198.86 369.986 198.661 370.584 198.761C371.182 198.86 371.531 199.01 371.63 199.209C371.73 199.408 371.431 199.857 370.734 200.554C370.036 201.252 369.488 202.448 369.089 204.142C368.691 205.836 367.794 207.43 366.399 208.925C365.004 210.42 363.708 211.616 362.512 212.512C361.317 213.409 359.921 214.057 358.327 214.456C356.733 214.854 355.238 215.402 353.843 216.1C352.448 216.798 351.202 217.645 350.106 218.641C349.01 219.638 348.262 220.534 347.864 221.332C347.664 221.73 347.465 222.129 347.266 222.527C348.212 221.631 349.159 220.734 350.106 219.837C351.999 218.043 354.391 216.598 357.281 215.502C360.171 214.406 362.363 213.26 363.858 212.064C365.352 210.868 366.598 209.722 367.595 208.626C368.591 207.53 369.289 206.533 369.687 205.637C370.086 204.74 370.833 203.893 371.929 203.095C372.478 202.697 373.026 202.298 373.574 201.9C373.673 202.597 373.773 203.295 373.873 203.992C374.072 205.387 373.873 207.281 373.275 209.672C372.677 212.064 372.627 213.908 373.125 215.203C373.624 216.499 373.922 217.993 374.022 219.687C374.072 220.534 374.122 221.381 374.172 222.229C374.321 222.129 374.471 222.029 374.62 221.93C374.919 221.73 375.118 220.385 375.218 217.894C375.318 215.402 375.866 212.662 376.862 209.672C377.859 206.683 378.357 204.391 378.357 202.796C378.357 201.202 378.457 200.156 378.656 199.657C378.855 199.159 379.154 198.86 379.553 198.761C379.951 198.661 380.499 198.262 381.197 197.565C381.895 196.867 382.443 195.97 382.841 194.874C383.24 193.778 383.29 192.433 382.991 190.838C382.692 189.244 382.194 188.048 381.496 187.251C380.798 186.454 380.001 185.806 379.104 185.308C378.208 184.809 377.859 183.713 378.058 182.019C378.257 180.325 378.307 178.083 378.208 175.293C378.108 172.502 377.61 170.111 376.713 168.118C375.816 166.125 375.666 163.633 376.264 160.644C376.862 157.654 377.161 155.91 377.161 155.412C377.161 154.914 376.962 154.515 376.563 154.216C376.364 154.067 376.165 153.917 375.965 153.768C375.916 154.565 375.866 155.362 375.816 156.159ZM192.855 184.859C192.756 185.656 192.955 187.101 193.453 189.194C193.951 191.287 194.25 193.678 194.35 196.369C194.45 199.059 194.4 200.604 194.201 201.003C194.001 201.401 193.902 202.796 193.902 205.188C193.902 207.58 193.453 209.971 192.556 212.363C191.659 214.755 191.161 217.844 191.061 221.631C190.962 225.417 191.012 228.158 191.211 229.852C191.41 231.546 191.111 234.137 190.314 237.625C189.517 241.113 189.019 242.906 188.819 243.006C188.62 243.106 188.371 243.006 188.072 242.707C187.773 242.408 187.374 241.81 186.876 240.913C186.378 240.016 186.029 238.322 185.83 235.831C185.63 233.34 185.232 231.297 184.634 229.702C184.036 228.108 183.04 226.514 181.644 224.919C180.249 223.325 179.352 222.577 178.954 222.677C178.754 222.727 178.555 222.777 178.356 222.826C179.053 223.673 179.751 224.521 180.449 225.368C181.844 227.062 182.741 228.357 183.139 229.254C183.538 230.151 183.737 232.443 183.737 236.13C183.737 239.817 183.936 242.209 184.335 243.305C184.734 244.401 185.132 245.099 185.531 245.398C185.929 245.697 186.129 246.045 186.129 246.444C186.129 246.643 186.129 246.843 186.129 247.042C185.431 247.042 184.734 247.042 184.036 247.042C182.641 247.042 180.797 246.444 178.505 245.248C176.213 244.052 174.071 243.155 172.078 242.557C170.085 241.96 167.743 241.063 165.052 239.867C162.362 238.671 160.169 237.425 158.475 236.13C156.781 234.834 155.386 233.589 154.29 232.393C153.194 231.197 152.297 230.749 151.599 231.048C150.902 231.347 150.404 231.895 150.105 232.692C149.806 233.489 149.855 234.336 150.254 235.233C150.653 236.13 151.749 236.728 153.543 237.027C155.336 237.326 156.682 237.774 157.578 238.372C158.475 238.97 160.269 239.817 162.96 240.913C165.65 242.009 168.989 243.953 172.975 246.743C176.961 249.533 179.751 251.327 181.345 252.124C182.94 252.921 183.787 253.619 183.887 254.217C183.986 254.815 183.887 255.313 183.588 255.712C183.289 256.11 183.139 257.854 183.139 260.943C183.139 264.032 182.192 267.022 180.299 269.912C178.406 272.802 177.459 274.845 177.459 276.04C177.459 276.638 177.459 277.236 177.459 277.834C177.708 276.987 177.957 276.14 178.206 275.293C178.705 273.599 179.9 271.656 181.794 269.463C183.687 267.271 185.033 264.929 185.83 262.438C186.228 261.192 186.627 259.947 187.026 258.701C187.275 258.851 187.524 259 187.773 259.15C188.271 259.448 188.769 260.495 189.268 262.289C189.766 264.082 190.115 266.773 190.314 270.36C190.513 273.948 190.862 276.738 191.36 278.731C191.859 280.724 192.158 284.81 192.257 290.988C192.307 294.077 192.357 297.167 192.407 300.256C192.556 300.256 192.706 300.256 192.855 300.256C193.154 300.256 193.453 294.675 193.752 283.514C194.051 272.353 194.4 265.876 194.798 264.082C194.998 263.185 195.197 262.289 195.396 261.392C195.944 261.74 196.492 262.089 197.041 262.438C198.137 263.136 199.083 263.584 199.881 263.783C200.678 263.983 201.724 264.63 203.02 265.727C204.315 266.823 205.411 268.616 206.308 271.108C207.205 273.599 208.002 275.193 208.7 275.891C209.049 276.24 209.397 276.589 209.746 276.937C209.148 275.293 208.55 273.649 207.952 272.005C206.757 268.716 205.013 265.876 202.721 263.484C200.429 261.093 199.083 259.498 198.685 258.701C198.286 257.904 198.087 257.206 198.087 256.608C198.087 256.01 198.386 255.512 198.984 255.114C199.582 254.715 200.977 254.316 203.169 253.918C205.361 253.519 207.404 252.822 209.298 251.825C211.191 250.829 213.334 249.483 215.725 247.789C218.117 246.095 221.156 244.401 224.843 242.707C226.687 241.86 228.531 241.013 230.374 240.166C229.128 240.465 227.883 240.764 226.637 241.063C224.146 241.661 222.053 242.408 220.359 243.305C218.665 244.202 215.426 245.497 210.643 247.191C205.86 248.885 202.97 249.832 201.973 250.031C200.977 250.231 200.13 250.231 199.432 250.031C198.735 249.832 198.336 249.533 198.236 249.135C198.137 248.736 198.386 247.989 198.984 246.892C199.582 245.796 200.229 244.052 200.927 241.661C201.625 239.269 202.721 237.874 204.216 237.475C205.71 237.077 206.856 236.479 207.653 235.682C208.451 234.884 208.999 234.137 209.298 233.439C209.447 233.091 209.597 232.742 209.746 232.393C209.547 232.393 209.348 232.393 209.148 232.393C208.75 232.393 208.102 232.941 207.205 234.037C206.308 235.133 204.963 235.881 203.169 236.279C201.375 236.678 200.229 237.126 199.731 237.625C199.233 238.123 198.685 239.07 198.087 240.465C197.489 241.86 196.891 242.757 196.293 243.155C195.994 243.355 195.695 243.554 195.396 243.753C195.496 242.209 195.596 240.664 195.695 239.119C195.895 236.03 195.695 232.991 195.097 230.001C194.499 227.012 194.201 224.271 194.201 221.78C194.201 219.289 194.699 216.15 195.695 212.363C196.692 208.576 197.29 205.487 197.489 203.095C197.688 200.704 197.688 198.611 197.489 196.817C197.29 195.024 196.492 192.383 195.097 188.895C194.4 187.151 193.702 185.407 193.005 183.663C192.955 184.062 192.905 184.461 192.855 184.859ZM274.918 229.702C274.918 229.952 274.918 230.201 274.918 230.45C274.918 230.948 274.669 231.596 274.171 232.393C273.673 233.19 273.473 234.436 273.573 236.13C273.673 237.824 273.324 240.066 272.527 242.856C272.128 244.252 271.73 245.647 271.331 247.042C270.633 245.896 269.936 244.75 269.238 243.604C267.843 241.312 266.847 238.92 266.249 236.429C265.651 233.938 265.651 232.542 266.249 232.244C266.847 231.945 267.793 231.845 269.089 231.945C270.384 232.044 271.68 231.695 272.975 230.898C273.623 230.5 274.271 230.101 274.918 229.702ZM372.378 233.29C371.581 235.482 371.182 237.077 371.182 238.073C371.182 239.07 371.082 239.717 370.883 240.016C370.684 240.315 370.584 241.113 370.584 242.408C370.584 243.703 370.883 245.647 371.481 248.238C372.079 250.829 372.378 253.22 372.378 255.413C372.378 257.605 371.73 263.833 370.435 274.097C369.139 284.361 367.744 290.091 366.249 291.287C364.755 292.483 363.808 293.081 363.409 293.081C363.011 293.081 361.964 292.184 360.27 290.39C358.576 288.597 357.33 286.703 356.533 284.71C355.736 282.717 355.437 281.322 355.636 280.525C355.836 279.728 355.836 278.731 355.636 277.535C355.437 276.339 355.487 274.147 355.786 270.958C356.085 267.769 355.935 265.826 355.337 265.129C354.74 264.431 354.142 264.132 353.544 264.232C352.946 264.331 352.298 264.68 351.6 265.278C350.903 265.876 350.454 266.673 350.255 267.67C350.056 268.666 350.305 269.414 351.003 269.912C351.7 270.41 352.398 273.649 353.095 279.628C353.793 285.607 354.391 289.095 354.889 290.091C355.387 291.088 356.483 292.483 358.177 294.277C359.872 296.07 360.569 297.715 360.27 299.21C359.971 300.704 359.423 301.651 358.626 302.05C357.829 302.448 356.683 302.498 355.188 302.199C353.693 301.9 351.75 301.85 349.358 302.05C346.967 302.249 344.874 302.797 343.08 303.694C341.287 304.591 339.443 305.737 337.55 307.132C335.656 308.527 333.912 309.324 332.318 309.523C331.521 309.623 330.723 309.723 329.926 309.822C329.976 310.022 330.026 310.221 330.076 310.42C330.175 310.819 330.723 311.018 331.72 311.018C332.716 311.018 334.759 310.171 337.849 308.477C340.938 306.783 343.08 305.787 344.276 305.488C345.472 305.189 347.166 305.189 349.358 305.488C351.551 305.787 353.494 306.384 355.188 307.281C356.035 307.73 356.882 308.178 357.729 308.627C357.131 309.175 356.533 309.723 355.935 310.271C354.74 311.367 353.045 312.513 350.853 313.709C348.661 314.905 347.116 315.951 346.219 316.848C345.322 317.745 343.329 318.841 340.24 320.136C338.696 320.784 337.151 321.432 335.606 322.08C335.706 322.229 335.806 322.379 335.905 322.528C336.105 322.827 336.453 323.026 336.952 323.126C337.45 323.226 338.297 323.076 339.493 322.678C340.689 322.279 344.127 320.934 349.807 318.642C355.487 316.35 358.925 315.054 360.121 314.755C361.317 314.456 362.562 314.406 363.858 314.606C365.153 314.805 366.199 314.755 366.997 314.456C367.794 314.157 369.139 313.46 371.033 312.364C372.926 311.267 374.271 310.321 375.068 309.523C375.866 308.726 376.613 307.73 377.311 306.534C378.008 305.338 378.556 303.993 378.955 302.498C379.353 301.003 379.603 298.761 379.702 295.772C379.802 292.782 379.752 290.889 379.553 290.091C379.353 289.294 379.005 288.746 378.506 288.447C378.008 288.148 377.311 285.408 376.414 280.226C375.517 275.044 375.019 269.364 374.919 263.185C374.819 257.007 374.371 252.473 373.574 249.583C372.776 246.693 372.378 244.202 372.378 242.109C372.378 240.016 372.727 237.675 373.424 235.084C374.122 232.493 374.421 230.998 374.321 230.599C374.221 230.201 374.072 230.001 373.873 230.001C373.673 230.001 373.175 231.098 372.378 233.29ZM279.253 234.187C279.552 234.187 280.25 234.635 281.346 235.532C282.442 236.429 283.389 236.927 284.186 237.027C284.983 237.126 285.482 237.326 285.681 237.625C285.88 237.924 286.179 239.817 286.578 243.305C286.976 246.793 287.176 250.131 287.176 253.32C287.176 254.914 287.176 256.509 287.176 258.103C285.98 257.605 284.784 257.107 283.588 256.608C281.196 255.612 278.905 254.217 276.712 252.423C274.52 250.629 273.424 249.483 273.424 248.985C273.424 248.487 274.022 247.042 275.217 244.65C276.413 242.259 277.111 240.315 277.31 238.821C277.509 237.326 277.808 236.18 278.207 235.383C278.606 234.585 278.954 234.187 279.253 234.187ZM16.4716 241.81C16.3719 243.703 16.5214 245.497 16.92 247.191C17.3186 248.885 17.5179 251.327 17.5179 254.516C17.5179 257.705 17.2189 261.093 16.621 264.68C16.0231 268.268 15.774 271.606 15.8737 274.695C15.9733 277.784 15.8238 280.475 15.4252 282.767C15.0266 285.059 15.0266 286.952 15.4252 288.447C15.8238 289.942 16.8203 291.586 18.4148 293.38C20.0092 295.174 21.3047 296.369 22.3012 296.967C23.2977 297.565 25.6395 298.313 29.3266 299.21C33.0138 300.106 35.7044 300.953 37.3984 301.751C39.0925 302.548 41.235 303.196 43.826 303.694C46.4169 304.192 48.3601 304.74 49.6556 305.338C50.9511 305.936 52.6452 307.032 54.7378 308.627C56.8305 310.221 58.4748 311.168 59.6706 311.467C60.2685 311.616 60.8664 311.766 61.4643 311.915C61.4145 311.766 61.3647 311.616 61.3149 311.467C61.2152 311.168 60.6173 310.769 59.5211 310.271C58.425 309.773 56.7807 308.676 54.5884 306.982C52.396 305.288 50.1539 303.993 47.8619 303.096C45.5699 302.199 43.4772 301.203 41.5838 300.106C39.6904 299.01 37.9465 297.565 36.3521 295.772C34.7577 293.978 33.9604 292.981 33.9604 292.782C33.9604 292.682 33.9604 292.583 33.9604 292.483C34.1598 292.483 34.3591 292.483 34.5584 292.483C34.957 292.483 35.3556 292.633 35.7542 292.931C36.1528 293.23 37.3486 293.629 39.3416 294.127C41.3347 294.626 44.3741 294.875 48.4598 294.875C50.5026 294.875 52.5455 294.875 54.5884 294.875C54.5884 294.725 54.5884 294.576 54.5884 294.426C54.5884 294.127 52.695 293.828 48.9082 293.529C45.1214 293.23 42.381 292.732 40.6869 292.035C38.9929 291.337 37.4483 290.39 36.0531 289.195C34.658 287.999 33.6615 286.504 33.0636 284.71C32.7646 283.813 32.4657 282.916 32.1667 282.02C33.3127 281.671 34.4587 281.322 35.6047 280.973C37.8967 280.276 41.235 279.678 45.6197 279.18C50.0044 278.681 53.1932 278.083 55.1863 277.386C57.1793 276.688 59.1723 275.692 61.1654 274.396C63.1584 273.101 64.9023 271.706 66.3971 270.211C67.8919 268.716 68.9382 267.52 69.5361 266.623C70.134 265.727 70.6323 264.481 71.0309 262.886C71.2302 262.089 71.4295 261.292 71.6288 260.495C70.9313 260.893 70.2337 261.292 69.5361 261.691C68.141 262.488 67.294 263.185 66.995 263.783C66.6961 264.381 65.8988 265.278 64.6034 266.474C63.3079 267.67 61.4643 268.965 59.0727 270.36C56.6811 271.755 54.5884 272.702 52.7946 273.2C51.0009 273.699 48.0113 274.197 43.826 274.695C39.6406 275.193 36.0531 275.891 33.0636 276.788C30.074 277.685 28.4298 278.034 28.1308 277.834C27.8319 277.635 27.6824 277.286 27.6824 276.788C27.6824 276.29 27.9813 275.343 28.5793 273.948C29.1772 272.553 29.4761 270.061 29.4761 266.474C29.4761 262.886 29.7252 260.545 30.2235 259.448C30.7218 258.352 31.3197 257.455 32.0172 256.758C32.7148 256.06 33.4622 255.512 34.2594 255.114C35.0566 254.715 36.9002 254.316 39.7901 253.918C42.68 253.519 44.5235 253.121 45.3207 252.722C46.118 252.323 47.0148 251.576 48.0113 250.48C49.0079 249.384 49.9546 248.786 50.8514 248.686C51.7483 248.586 52.5455 248.287 53.2431 247.789C53.9406 247.291 54.6382 246.494 55.3358 245.398C56.0333 244.301 56.3821 243.554 56.3821 243.155C56.3821 242.757 56.133 242.308 55.6347 241.81C55.1364 241.312 54.5385 241.063 53.841 241.063C53.1434 241.063 52.5953 241.262 52.1967 241.661C51.7981 242.059 51.3995 242.856 51.0009 244.052C50.6023 245.248 49.8051 246.544 48.6093 247.939C47.4134 249.334 46.3173 250.28 45.3207 250.779C44.3242 251.277 42.1817 251.825 38.8932 252.423C35.6047 253.021 33.3127 253.718 32.0172 254.516C30.7218 255.313 29.5758 256.459 28.5793 257.954C27.5827 259.448 26.7357 262.039 26.0381 265.727C25.3406 269.414 24.8921 271.506 24.6928 272.005C24.4935 272.503 24.2444 272.802 23.9454 272.901C23.796 272.951 23.6465 273.001 23.497 273.051C23.0486 270.56 22.6001 268.068 22.1517 265.577C21.2548 260.594 20.5573 257.406 20.059 256.01C19.5608 254.615 19.3116 253.27 19.3116 251.975C19.3116 250.679 19.0127 249.135 18.4148 247.341C17.8169 245.547 17.5179 243.953 17.5179 242.557C17.5179 241.162 17.3684 240.216 17.0695 239.717C16.92 239.468 16.7705 239.219 16.621 238.97C16.5712 239.917 16.5214 240.863 16.4716 241.81ZM261.465 286.205C261.465 287.002 261.814 288.347 262.512 290.241C263.209 292.134 264.007 293.828 264.903 295.323C265.8 296.818 266.548 297.765 267.146 298.163C267.744 298.562 268.142 299.16 268.341 299.957C268.541 300.754 269.139 301.651 270.135 302.648C271.132 303.644 271.979 304.89 272.676 306.384C273.374 307.879 273.723 309.474 273.723 311.168C273.723 312.862 273.175 315.802 272.078 319.987C270.982 324.172 270.484 327.112 270.584 328.806C270.683 330.5 271.231 331.995 272.228 333.29C273.224 334.586 275.467 335.981 278.954 337.476C282.442 338.971 284.236 339.967 284.336 340.465C284.435 340.964 283.339 342.159 281.047 344.053C278.755 345.946 276.911 347.192 275.516 347.79C274.121 348.388 271.929 349.833 268.939 352.125C265.95 354.417 262.661 356.011 259.074 356.908C255.486 357.805 253.643 358.502 253.543 359.001C253.493 359.25 253.443 359.499 253.394 359.748C255.337 359.399 257.28 359.05 259.223 358.702C263.11 358.004 266.946 356.758 270.733 354.965C274.52 353.171 277.509 351.975 279.702 351.377C281.894 350.779 283.588 350.181 284.784 349.583C285.98 348.986 287.225 348.886 288.521 349.285C289.816 349.683 291.162 349.833 292.557 349.733C293.952 349.633 295.297 349.035 296.593 347.939C297.888 346.843 298.785 345.448 299.283 343.754C299.782 342.06 301.625 340.465 304.814 338.971C308.003 337.476 309.747 336.479 310.046 335.981C310.345 335.483 311.341 334.785 313.035 333.888C314.729 332.991 316.423 331.845 318.117 330.45C319.812 329.055 320.659 328.208 320.659 327.909C320.659 327.76 320.659 327.61 320.659 327.461C320.409 327.461 320.16 327.461 319.911 327.461C319.413 327.461 318.117 328.308 316.025 330.002C313.932 331.696 311.59 332.991 308.999 333.888C306.408 334.785 303.568 335.383 300.479 335.682C297.39 335.981 295.198 335.931 293.902 335.533C292.607 335.134 291.76 333.739 291.361 331.347C290.962 328.956 290.763 324.122 290.763 316.848C290.763 309.573 291.062 304.142 291.66 300.555C292.258 296.967 292.407 294.974 292.108 294.576C291.809 294.177 291.361 293.928 290.763 293.828C290.165 293.729 289.468 293.928 288.67 294.426C287.873 294.924 287.425 295.772 287.325 296.967C287.225 298.163 287.325 299.06 287.624 299.658C287.923 300.256 288.122 301.751 288.222 304.142C288.322 306.534 288.571 307.979 288.969 308.477C289.368 308.975 289.567 312.912 289.567 320.286C289.567 327.66 289.667 331.945 289.866 333.141C290.066 334.337 289.667 335.134 288.67 335.533C287.674 335.931 286.478 335.732 285.083 334.935C283.688 334.137 281.794 333.29 279.403 332.394C277.011 331.497 275.566 330.749 275.068 330.151C274.57 329.553 274.221 328.756 274.022 327.76C273.822 326.763 273.822 324.87 274.022 322.08C274.221 319.289 274.52 317.197 274.918 315.802C275.317 314.406 275.516 312.812 275.516 311.018C275.516 309.225 275.118 307.481 274.321 305.787C273.523 304.092 272.327 302.498 270.733 301.003C269.139 299.508 268.092 298.113 267.594 296.818C267.096 295.522 266.398 294.227 265.501 292.931C264.604 291.636 263.907 290.042 263.409 288.148C262.91 286.255 262.462 285.258 262.063 285.159C261.864 285.109 261.665 285.059 261.465 285.009C261.465 285.408 261.465 285.806 261.465 286.205ZM150.404 288.298C149.307 289.095 148.759 289.942 148.759 290.839C148.759 291.736 149.008 292.882 149.507 294.277C150.005 295.672 150.404 299.11 150.703 304.591C151.001 310.072 151.55 313.659 152.347 315.353C153.144 317.047 154.589 318.791 156.682 320.585C158.774 322.379 160.07 323.724 160.568 324.621C161.066 325.518 161.465 327.012 161.764 329.105C162.063 331.198 162.162 334.436 162.063 338.821C161.963 343.206 162.162 346.345 162.661 348.238C163.159 350.132 164.255 352.473 165.949 355.264C167.643 358.054 169.337 360.196 171.031 361.691C172.726 363.186 174.968 364.78 177.758 366.474C180.548 368.169 182.192 369.265 182.691 369.763C183.189 370.261 183.438 370.66 183.438 370.959C183.438 371.108 183.438 371.258 183.438 371.407C182.292 370.959 181.146 370.51 180 370.062C177.708 369.165 175.067 368.368 172.078 367.67C169.088 366.973 166.497 366.026 164.305 364.83C162.113 363.634 160.269 362.389 158.774 361.093C157.28 359.798 154.738 358.452 151.151 357.057C147.563 355.662 145.172 354.616 143.976 353.918C142.78 353.221 141.784 352.822 140.986 352.723C140.588 352.673 140.189 352.623 139.791 352.573C139.84 352.772 139.89 352.972 139.94 353.171C140.04 353.57 141.285 354.417 143.677 355.712C146.069 357.008 148.411 358.104 150.703 359.001C152.994 359.897 155.436 361.542 158.027 363.933C160.618 366.325 163.109 368.169 165.501 369.464C167.892 370.759 169.736 371.955 171.031 373.051C172.327 374.148 173.772 375.144 175.366 376.041C176.961 376.938 179.203 378.881 182.093 381.871C184.983 384.86 187.225 386.604 188.819 387.102C190.414 387.601 192.108 387.85 193.902 387.85C195.695 387.85 197.19 387.7 198.386 387.401C199.582 387.102 200.877 386.504 202.272 385.608C203.667 384.711 205.262 383.963 207.056 383.365C208.849 382.768 210.444 381.871 211.839 380.675C213.234 379.479 214.38 378.682 215.277 378.283C216.174 377.885 216.971 377.187 217.668 376.191C218.366 375.194 219.911 374.247 222.302 373.35C224.694 372.454 226.787 371.507 228.58 370.51C230.374 369.514 232.018 368.816 233.513 368.418C235.008 368.019 235.905 367.67 236.204 367.371C236.503 367.072 236.652 366.823 236.652 366.624C236.652 366.524 236.652 366.425 236.652 366.325C236.204 366.375 235.755 366.425 235.307 366.474C234.41 366.574 232.616 367.222 229.926 368.418C227.235 369.613 225.491 370.261 224.694 370.361C223.897 370.461 222.352 370.959 220.06 371.856C217.768 372.753 215.426 373.301 213.035 373.5C210.643 373.699 209.348 373.649 209.148 373.35C209.049 373.201 208.949 373.051 208.849 372.902C209.846 372.254 210.842 371.607 211.839 370.959C213.832 369.663 216.423 368.418 219.612 367.222C222.801 366.026 226.039 364.232 229.328 361.841C232.616 359.449 234.809 357.456 235.905 355.862C237.001 354.267 237.748 352.972 238.147 351.975C238.546 350.979 238.745 349.783 238.745 348.388C238.745 346.993 238.645 346.146 238.446 345.847C238.247 345.548 238.247 344.202 238.446 341.811C238.645 339.419 239.393 337.127 240.688 334.935C241.984 332.742 242.831 331.048 243.229 329.852C243.628 328.657 244.574 327.311 246.069 325.817C247.564 324.322 249.806 322.578 252.796 320.585C254.291 319.588 255.785 318.592 257.28 317.595C256.583 317.795 255.885 317.994 255.187 318.193C253.792 318.592 252.447 319.19 251.151 319.987C249.856 320.784 248.511 321.731 247.116 322.827C245.72 323.923 244.226 325.418 242.631 327.311C241.037 329.205 239.592 331.746 238.296 334.935C237.001 338.124 236.353 340.565 236.353 342.259C236.353 343.953 236.503 345.548 236.802 347.042C237.101 348.537 236.752 350.132 235.755 351.826C234.759 353.52 232.267 355.363 228.281 357.356C224.295 359.349 219.911 360.994 215.127 362.289C210.344 363.585 207.305 364.581 206.009 365.279C204.714 365.976 203.717 366.674 203.02 367.371C202.322 368.069 201.674 368.418 201.076 368.418C200.479 368.418 200.08 368.119 199.881 367.521C199.681 366.923 200.03 365.877 200.927 364.382C201.824 362.887 203.219 361.243 205.112 359.449C207.006 357.655 208.899 356.111 210.793 354.815C212.686 353.52 213.832 352.324 214.231 351.228C214.629 350.132 214.828 348.089 214.828 345.099C214.828 342.11 214.629 340.465 214.231 340.166C214.031 340.017 213.832 339.867 213.633 339.718C213.633 341.362 213.633 343.006 213.633 344.651C213.633 347.939 213.483 349.982 213.184 350.779C212.885 351.577 211.64 352.424 209.447 353.32C207.255 354.217 205.461 355.164 204.066 356.161C202.671 357.157 201.525 358.104 200.628 359.001C199.731 359.897 198.884 361.293 198.087 363.186C197.29 365.079 196.791 366.026 196.592 366.026C196.393 366.026 196.094 365.03 195.695 363.036C195.297 361.043 195.197 358.751 195.396 356.161C195.596 353.57 195.247 350.231 194.35 346.146C193.453 342.06 193.154 338.522 193.453 335.533C193.752 332.543 193.752 329.753 193.453 327.162C193.154 324.571 193.005 321.93 193.005 319.24C193.005 316.549 192.805 315.154 192.407 315.054C192.207 315.004 192.008 314.954 191.809 314.905C191.859 317.645 191.909 320.386 191.958 323.126C192.058 328.607 191.809 332.742 191.211 335.533C190.613 338.323 190.464 341.91 190.763 346.295C191.061 350.68 190.912 355.164 190.314 359.748C189.716 364.332 189.218 366.923 188.819 367.521C188.421 368.119 187.972 368.418 187.474 368.418C186.976 368.418 186.278 367.919 185.381 366.923C184.484 365.926 182.541 364.432 179.552 362.439C176.562 360.446 174.37 358.751 172.975 357.356C171.58 355.961 170.135 353.968 168.64 351.377C167.145 348.786 166.149 346.494 165.65 344.501C165.152 342.508 164.853 340.017 164.753 337.027C164.654 334.038 164.355 331.347 163.857 328.956C163.358 326.564 162.91 324.97 162.511 324.172C162.113 323.375 160.718 321.93 158.326 319.837C155.934 317.745 154.439 316.1 153.842 314.905C153.244 313.709 152.945 311.168 152.945 307.281C152.945 303.395 153.244 301.103 153.842 300.405C154.439 299.708 155.037 297.914 155.635 295.024C156.233 292.134 156.233 290.141 155.635 289.045C155.037 287.949 154.29 287.351 153.393 287.251C152.496 287.152 151.5 287.5 150.404 288.298ZM236.031 293.523C234.836 295.716 238.04 294.361 237.748 298.118C237.686 298.919 236.851 300.405 236.054 301.302C236.054 301.302 234.36 302.996 233.364 303.694C232.367 304.391 230.424 305.388 227.534 306.683C224.644 307.979 222.502 309.225 221.106 310.42C219.711 311.616 218.366 313.26 217.071 315.353C215.775 317.446 214.828 319.389 214.231 321.183C213.932 322.08 213.633 322.976 213.334 323.873C213.483 323.873 213.945 342.224 214.094 342.224C214.393 342.224 214.729 322.727 215.725 320.435C216.722 318.143 218.067 315.951 219.761 313.858C221.455 311.766 224.345 309.723 228.431 307.73C232.517 305.737 238.847 303.215 238.847 303.215C240.94 301.421 241.336 298.412 242.332 296.519C243.329 294.626 242.037 292.874 242.037 292.475C242.037 292.076 241.693 291.934 241.394 291.835C241.095 291.735 237.227 291.331 236.031 293.523Z" fill="#ffffff" fill-rule="nonzero" opacity="1" stroke="#ffffff" stroke-linecap="round" stroke-linejoin="round" stroke-opacity="0" stroke-width="1" vectornator:layerName="Curva 1"/>
</g>
</svg>
